<svg width="56" height="56" viewBox="0 0 56 56" fill="none" xmlns="http://www.w3.org/2000/svg">
<g opacity="0.2">
<path d="M56 28C56 43.464 43.464 56 28 56C12.536 56 0 43.464 0 28C0 13.2086 11.4693 1.09598 25.9997 0.0703479C27.1015 -0.00742459 28 0.895431 28 2V6.2963C28 7.40087 27.1021 8.28563 26.003 8.39624C16.0589 9.39713 8.2963 17.792 8.2963 28C8.2963 38.8821 17.1179 47.7037 28 47.7037C38.8821 47.7037 47.7037 38.8821 47.7037 28C47.7037 26.1353 47.4447 24.331 46.9606 22.6213C46.6611 21.5636 47.1459 20.4081 48.165 19.996L52.154 18.3829C53.1814 17.9675 54.3581 18.4649 54.6933 19.5212C55.5421 22.1958 56 25.0444 56 28Z" fill="white"/>
<path d="M21.8463 21.5087C21.8308 21.5115 21.8153 21.5157 21.8013 21.5199H20.62C19.7425 21.5199 19 22.2624 19 23.1399C19 24.0174 19.7425 24.7599 20.62 24.7599H20.8V22.2399H21.52V32.4662C21.52 32.6026 21.5383 32.7306 21.565 32.8599C21.5664 32.8642 21.5636 32.867 21.565 32.8712C21.5777 32.9331 21.5917 32.9921 21.61 33.0512C21.6114 33.054 21.6086 33.0596 21.61 33.0624C21.6494 33.1848 21.7056 33.3001 21.7675 33.4112C21.7689 33.414 21.7661 33.4196 21.7675 33.4224C21.797 33.4759 21.8336 33.5293 21.8688 33.5799C21.8702 33.5828 21.8673 33.5884 21.8688 33.5912C21.9419 33.6981 22.0248 33.7923 22.1163 33.8837C22.2077 33.9751 22.3019 34.0581 22.4088 34.1312C22.4116 34.1326 22.4172 34.1298 22.42 34.1312C22.4706 34.1649 22.5227 34.2029 22.5775 34.2324C22.6366 34.2662 22.6942 34.2957 22.7575 34.3224C22.818 34.3478 22.8742 34.3703 22.9375 34.3899C22.9403 34.3913 22.9459 34.3885 22.9488 34.3899C23.0078 34.4082 23.0669 34.4223 23.1288 34.4349C23.2623 34.4645 23.3931 34.4799 23.5338 34.4799H32.3538C32.4269 34.4799 32.4972 34.4757 32.5675 34.4687C32.6378 34.4617 32.7138 34.449 32.7813 34.4349C32.8544 34.4195 32.9134 34.4012 32.9838 34.3787C33.0231 34.366 33.0583 34.3478 33.0963 34.3337C33.1398 34.3168 33.1891 34.3084 33.2313 34.2887C33.3325 34.2409 33.4323 34.1818 33.5238 34.1199C33.5842 34.0792 33.6377 34.0426 33.6925 33.9962C33.7403 33.9568 33.7839 33.916 33.8275 33.8724C33.8317 33.8682 33.8345 33.8654 33.8388 33.8612C33.8823 33.8176 33.9231 33.7628 33.9625 33.7149C33.9653 33.7107 33.9709 33.7079 33.9738 33.7037C34.0131 33.6559 34.0511 33.6081 34.0863 33.5574C34.0891 33.5532 34.0947 33.5504 34.0975 33.5462C34.1313 33.4942 34.158 33.4435 34.1875 33.3887C34.1903 33.3845 34.1959 33.3817 34.1988 33.3774C34.2269 33.3254 34.2536 33.2635 34.2775 33.2087C34.2803 33.2017 34.2859 33.1932 34.2888 33.1862C34.3113 33.1313 34.3267 33.0737 34.345 33.0174C34.3478 33.0104 34.3534 33.002 34.3563 32.9949C34.3759 32.9331 34.3872 32.8782 34.4013 32.8149C34.4027 32.8121 34.4013 32.8065 34.4013 32.8037C34.4153 32.7362 34.428 32.6701 34.435 32.6012C34.442 32.5309 34.4463 32.4592 34.4463 32.3874V22.2399H35.1663V24.7599H35.38C36.2575 24.7599 37 24.0174 37 23.1399C37 22.2624 36.2575 21.5199 35.38 21.5199H21.9475C21.9152 21.5115 21.88 21.5073 21.8463 21.5087ZM28.72 22.2399H31.6V33.7599H28.72V22.2399Z" fill="white"/>
</g>
</svg>
