<svg width="56" height="56" viewBox="0 0 56 56" fill="none" xmlns="http://www.w3.org/2000/svg">
<g opacity="0.2">
<path d="M56 28C56 43.464 43.464 56 28 56C12.536 56 0 43.464 0 28C0 13.2086 11.4693 1.09598 25.9997 0.0703479C27.1015 -0.00742459 28 0.895431 28 2V6.2963C28 7.40087 27.1021 8.28563 26.003 8.39624C16.0589 9.39713 8.2963 17.792 8.2963 28C8.2963 38.8821 17.1179 47.7037 28 47.7037C38.8821 47.7037 47.7037 38.8821 47.7037 28C47.7037 26.1353 47.4447 24.331 46.9606 22.6213C46.6611 21.5636 47.1459 20.4081 48.165 19.996L52.154 18.3829C53.1814 17.9675 54.3581 18.4649 54.6933 19.5212C55.5421 22.1958 56 25.0444 56 28Z" fill="white"/>
<path d="M19.9 21.75C19.4032 21.75 19 22.1532 19 22.65V33.6496C19 34.1464 19.4032 34.5496 19.9 34.5496H36.1C36.5968 34.5496 37 34.1464 37 33.6496V22.65C37 22.1532 36.5968 21.75 36.1 21.75H19.9ZM21.6209 23.5499H34.3791C34.4463 23.7392 34.5548 23.9111 34.6968 24.0531C34.8388 24.1951 35.0107 24.3036 35.2 24.3708V31.9288C35.0107 31.9959 34.8388 32.1044 34.6968 32.2465C34.5548 32.3885 34.4463 32.5604 34.3791 32.7496H21.6209C21.5537 32.5604 21.4452 32.3885 21.3032 32.2465C21.1612 32.1044 20.9893 31.9959 20.8 31.9288V24.3708C20.9893 24.3036 21.1612 24.1951 21.3032 24.0531C21.4452 23.9111 21.5537 23.7392 21.6209 23.5499Z" fill="white"/>
<path d="M31.0486 28.3021C31.0486 29.959 29.7054 31.3021 28.0486 31.3021C26.3917 31.3021 25.0486 29.959 25.0486 28.3021C25.0486 26.6453 26.3917 25.3021 28.0486 25.3021C29.7054 25.3021 31.0486 26.6453 31.0486 28.3021Z" fill="white"/>
</g>
</svg>
