<svg width="22" height="14" viewBox="0 0 22 14" fill="none" xmlns="http://www.w3.org/2000/svg">
<path d="M8.51709 0.548443C8.66319 0.533143 8.81347 0.557805 8.95146 0.625005C9.22586 0.758605 9.3999 1.03816 9.3999 1.34376V4.59844H19.7999C20.6839 4.59844 21.3999 5.31444 21.3999 6.19844V7.79844C21.3999 8.68244 20.6839 9.39844 19.7999 9.39844H9.3999V12.6563C9.3999 12.9627 9.22586 13.2414 8.95146 13.375C8.83946 13.4302 8.7191 13.4563 8.5999 13.4563C8.4247 13.4563 8.25091 13.4003 8.10771 13.2891L0.851465 7.63125C0.657064 7.47925 0.543652 7.24877 0.543652 7.00157C0.543652 6.75437 0.657064 6.52152 0.851465 6.37032L8.10771 0.712505C8.22851 0.618505 8.37099 0.563743 8.51709 0.548443Z" fill="white"/>
</svg>
