<svg width="110" height="110" viewBox="0 0 110 110" fill="none" xmlns="http://www.w3.org/2000/svg">
<path d="M13.4594 6.90039C9.86294 6.90039 6.90039 9.86294 6.90039 13.4594V35.3228C6.90039 38.9192 9.86294 41.8818 13.4594 41.8818H20.0184V46.2544C20.0143 46.5441 20.0678 46.8318 20.1759 47.1006C20.2839 47.3695 20.4443 47.6142 20.6477 47.8205C20.8511 48.0268 21.0935 48.1907 21.3608 48.3025C21.6281 48.4143 21.915 48.4719 22.2047 48.4719C22.4945 48.4719 22.7813 48.4143 23.0486 48.3025C23.3159 48.1907 23.5583 48.0268 23.7618 47.8205C23.9652 47.6142 24.1256 47.3695 24.2336 47.1006C24.3417 46.8318 24.3952 46.5441 24.3911 46.2544V41.8818H35.3228C38.9192 41.8818 41.8818 38.9192 41.8818 35.3228V26.5774H52.8134C53.1032 26.5815 53.3908 26.528 53.6596 26.4199C53.9285 26.3119 54.1732 26.1515 54.3795 25.9481C54.5858 25.7447 54.7497 25.5023 54.8615 25.235C54.9733 24.9677 55.0309 24.6808 55.0309 24.3911C55.0309 24.1013 54.9733 23.8145 54.8615 23.5472C54.7497 23.2799 54.5858 23.0375 54.3795 22.8341C54.1732 22.6306 53.9285 22.4702 53.6596 22.3622C53.3908 22.2542 53.1032 22.2006 52.8134 22.2047H41.8818V13.4594C41.8818 9.86294 38.9192 6.90039 35.3228 6.90039H13.4594ZM74.6768 6.90039C71.0803 6.90039 68.1178 9.86294 68.1178 13.4594V22.2047H61.5588C61.2691 22.2006 60.9814 22.2542 60.7126 22.3622C60.4437 22.4702 60.199 22.6306 59.9927 22.8341C59.7864 23.0375 59.6225 23.2799 59.5107 23.5472C59.3989 23.8145 59.3413 24.1013 59.3413 24.3911C59.3413 24.6808 59.3989 24.9677 59.5107 25.235C59.6225 25.5023 59.7864 25.7447 59.9927 25.9481C60.199 26.1515 60.4437 26.3119 60.7126 26.4199C60.9814 26.528 61.2691 26.5815 61.5588 26.5774H68.1178V35.3228C68.1178 38.9192 71.0803 41.8818 74.6768 41.8818H83.4221V52.8134C83.418 53.1032 83.4716 53.3908 83.5796 53.6596C83.6876 53.9285 83.848 54.1732 84.0515 54.3795C84.2549 54.5858 84.4973 54.7497 84.7646 54.8615C85.0319 54.9733 85.3187 55.0309 85.6085 55.0309C85.8982 55.0309 86.1851 54.9733 86.4524 54.8615C86.7197 54.7497 86.9621 54.5858 87.1655 54.3795C87.3689 54.1732 87.5293 53.9285 87.6373 53.6596C87.7454 53.3908 87.7989 53.1032 87.7948 52.8134V41.8818H96.5401C100.137 41.8818 103.099 38.9192 103.099 35.3228V13.4594C103.099 9.86294 100.137 6.90039 96.5401 6.90039H74.6768ZM13.4594 11.2731H35.3228C36.5581 11.2731 37.5091 12.2241 37.5091 13.4594V24.0238C37.4701 24.2599 37.4701 24.5009 37.5091 24.737V35.3228C37.5091 36.5581 36.5581 37.5091 35.3228 37.5091H22.5421C22.4193 37.4886 22.295 37.4786 22.1706 37.4792C22.0647 37.4815 21.9591 37.4915 21.8546 37.5091H13.4594C12.2241 37.5091 11.2731 36.5581 11.2731 35.3228V13.4594C11.2731 12.2241 12.2241 11.2731 13.4594 11.2731ZM74.6768 11.2731H96.5401C97.7755 11.2731 98.7265 12.2241 98.7265 13.4594V35.3228C98.7265 36.5581 97.7755 37.5091 96.5401 37.5091H85.9458C85.8231 37.4886 85.6988 37.4786 85.5743 37.4792C85.4684 37.4815 85.3628 37.4915 85.2583 37.5091H74.6768C73.4415 37.5091 72.4905 36.5581 72.4905 35.3228V13.4594C72.4905 12.2241 73.4415 11.2731 74.6768 11.2731ZM22.1706 52.7835C21.5915 52.7926 21.0396 53.031 20.6361 53.4465C20.2326 53.862 20.0105 54.4207 20.0184 54.9998V68.1178H13.4594C9.86294 68.1178 6.90039 71.0803 6.90039 74.6768V96.5401C6.90039 100.137 9.86294 103.099 13.4594 103.099H35.3228C38.9192 103.099 41.8818 100.137 41.8818 96.5401V87.7948H48.4408C48.7305 87.7989 49.0181 87.7454 49.287 87.6373C49.5558 87.5293 49.8005 87.3689 50.0068 87.1655C50.2132 86.9621 50.377 86.7197 50.4888 86.4524C50.6007 86.1851 50.6582 85.8982 50.6582 85.6085C50.6582 85.3187 50.6007 85.0319 50.4888 84.7646C50.377 84.4973 50.2132 84.2549 50.0068 84.0515C49.8005 83.848 49.5558 83.6876 49.287 83.5796C49.0181 83.4716 48.7305 83.418 48.4408 83.4221H41.8818V74.6768C41.8818 71.0803 38.9192 68.1178 35.3228 68.1178H24.3911V54.9998C24.3951 54.7073 24.3403 54.4169 24.2301 54.146C24.1199 53.875 23.9564 53.6289 23.7494 53.4222C23.5423 53.2156 23.2959 53.0526 23.0247 52.9429C22.7535 52.8331 22.4631 52.779 22.1706 52.7835ZM85.5743 59.3425C84.9952 59.3516 84.4433 59.59 84.0399 60.0055C83.6364 60.421 83.4142 60.9797 83.4221 61.5588V65.9314H74.6768C71.0803 65.9314 68.1178 68.894 68.1178 72.4905V83.4221H57.1861C56.8964 83.418 56.6087 83.4716 56.3399 83.5796C56.071 83.6876 55.8264 83.848 55.62 84.0515C55.4137 84.2549 55.2499 84.4973 55.138 84.7646C55.0262 85.0319 54.9686 85.3187 54.9686 85.6085C54.9686 85.8982 55.0262 86.1851 55.138 86.4524C55.2499 86.7197 55.4137 86.9621 55.62 87.1655C55.8264 87.3689 56.071 87.5293 56.3399 87.6373C56.6087 87.7454 56.8964 87.7989 57.1861 87.7948H68.1178V94.3538C68.1178 97.9503 71.0803 100.913 74.6768 100.913H96.5401C100.137 100.913 103.099 97.9503 103.099 94.3538V72.4905C103.099 68.894 100.137 65.9314 96.5401 65.9314H87.7948V61.5588C87.7988 61.2663 87.7441 60.9759 87.6339 60.705C87.5236 60.434 87.3601 60.1879 87.1531 59.9812C86.946 59.7746 86.6996 59.6116 86.4284 59.5019C86.1573 59.3922 85.8668 59.338 85.5743 59.3425ZM74.6768 70.3041H85.2412C85.4773 70.3431 85.7183 70.3431 85.9544 70.3041H96.5401C97.7755 70.3041 98.7265 71.2551 98.7265 72.4905V94.3538C98.7265 95.5892 97.7755 96.5401 96.5401 96.5401H74.6768C73.4415 96.5401 72.4905 95.5892 72.4905 94.3538V85.9757C72.5295 85.7396 72.5295 85.4987 72.4905 85.2626V72.4905C72.4905 71.2551 73.4415 70.3041 74.6768 70.3041ZM13.4594 72.4905H35.3228C36.5581 72.4905 37.5091 73.4415 37.5091 74.6768V96.5401C37.5091 97.7755 36.5581 98.7265 35.3228 98.7265H13.4594C12.2241 98.7265 11.2731 97.7755 11.2731 96.5401V74.6768C11.2731 73.4415 12.2241 72.4905 13.4594 72.4905Z" fill="white"/>
<path d="M13.4594 11.2731H35.3228C36.5581 11.2731 37.5091 12.2241 37.5091 13.4594V24.0238C37.4701 24.2599 37.4701 24.5009 37.5091 24.737V35.3228C37.5091 36.5581 36.5581 37.5091 35.3228 37.5091H22.5421C22.4193 37.4886 22.295 37.4786 22.1706 37.4792C22.0647 37.4815 21.9591 37.4915 21.8546 37.5091H13.4594C12.2241 37.5091 11.2731 36.5581 11.2731 35.3228V13.4594C11.2731 12.2241 12.2241 11.2731 13.4594 11.2731Z" fill="white"/>
<path d="M74.6768 11.2731H96.5401C97.7755 11.2731 98.7265 12.2241 98.7265 13.4594V35.3228C98.7265 36.5581 97.7755 37.5091 96.5401 37.5091H85.9458C85.8231 37.4886 85.6988 37.4786 85.5743 37.4792C85.4684 37.4815 85.3628 37.4915 85.2583 37.5091H74.6768C73.4415 37.5091 72.4905 36.5581 72.4905 35.3228V13.4594C72.4905 12.2241 73.4415 11.2731 74.6768 11.2731Z" fill="white"/>
<path d="M74.6768 70.3041H85.2412C85.4773 70.3431 85.7183 70.3431 85.9544 70.3041H96.5401C97.7755 70.3041 98.7265 71.2551 98.7265 72.4905V94.3538C98.7265 95.5892 97.7755 96.5401 96.5401 96.5401H74.6768C73.4415 96.5401 72.4905 95.5892 72.4905 94.3538V85.9757C72.5295 85.7396 72.5295 85.4987 72.4905 85.2626V72.4905C72.4905 71.2551 73.4415 70.3041 74.6768 70.3041Z" fill="white"/>
<path d="M13.4594 72.4905H35.3228C36.5581 72.4905 37.5091 73.4415 37.5091 74.6768V96.5401C37.5091 97.7755 36.5581 98.7265 35.3228 98.7265H13.4594C12.2241 98.7265 11.2731 97.7755 11.2731 96.5401V74.6768C11.2731 73.4415 12.2241 72.4905 13.4594 72.4905Z" fill="white"/>
</svg>
