<svg width="110" height="110" viewBox="0 0 110 110" fill="none" xmlns="http://www.w3.org/2000/svg">
<path d="M21.1619 6.5528C20.9282 6.55788 20.6952 6.57998 20.4648 6.61894H16.414C15.7748 6.60988 15.1402 6.72832 14.5471 6.96739C13.954 7.20646 13.4142 7.5614 12.959 8.01156C12.5039 8.46173 12.1424 8.99815 11.8957 9.58965C11.649 10.1811 11.522 10.8159 11.522 11.4571C11.522 12.0983 11.649 12.7331 11.8957 13.3246C12.1424 13.9161 12.5039 14.4525 12.959 14.9027C13.4142 15.3528 13.954 15.7078 14.5471 15.9468C15.1402 16.1859 15.7748 16.3044 16.414 16.2953V50.1625C15.7748 50.1534 15.1402 50.2719 14.5471 50.5109C13.954 50.75 13.4142 51.1049 12.959 51.5551C12.5039 52.0053 12.1424 52.5417 11.8957 53.1332C11.649 53.7247 11.522 54.3595 11.522 55.0007C11.522 55.6418 11.649 56.2766 11.8957 56.8681C12.1424 57.4596 12.5039 57.996 12.959 58.4462C13.4142 58.8964 13.954 59.2513 14.5471 59.4904C15.1402 59.7295 15.7748 59.8479 16.414 59.8388V93.706C15.7748 93.697 15.1402 93.8154 14.5471 94.0545C13.954 94.2936 13.4142 94.6485 12.959 95.0986C12.5039 95.5488 12.1424 96.0852 11.8957 96.6767C11.649 97.2682 11.522 97.903 11.522 98.5442C11.522 99.1854 11.649 99.8202 11.8957 100.412C12.1424 101.003 12.5039 101.54 12.959 101.99C13.4142 102.44 13.954 102.795 14.5471 103.034C15.1402 103.273 15.7748 103.391 16.414 103.382H20.4271C20.9479 103.469 21.4794 103.469 22.0003 103.382H87.9531C88.4739 103.469 89.0054 103.469 89.5263 103.382H93.5865C94.2256 103.391 94.8602 103.273 95.4533 103.034C96.0464 102.795 96.5863 102.44 97.0414 101.99C97.4966 101.54 97.858 101.003 98.1047 100.412C98.3514 99.8202 98.4785 99.1854 98.4785 98.5442C98.4785 97.903 98.3514 97.2682 98.1047 96.6767C97.858 96.0852 97.4966 95.5488 97.0414 95.0986C96.5863 94.6485 96.0464 94.2936 95.4533 94.0545C94.8602 93.8154 94.2256 93.697 93.5865 93.706V59.8388C94.2256 59.8479 94.8602 59.7295 95.4533 59.4904C96.0464 59.2513 96.5863 58.8964 97.0414 58.4462C97.4966 57.996 97.858 57.4596 98.1047 56.8681C98.3514 56.2766 98.4785 55.6418 98.4785 55.0007C98.4785 54.3595 98.3514 53.7247 98.1047 53.1332C97.858 52.5417 97.4966 52.0053 97.0414 51.5551C96.5863 51.1049 96.0464 50.75 95.4533 50.5109C94.8602 50.2719 94.2256 50.1534 93.5865 50.1625V16.2953C94.2256 16.3044 94.8602 16.1859 95.4533 15.9468C96.0464 15.7078 96.5863 15.3528 97.0414 14.9027C97.4966 14.4525 97.858 13.9161 98.1047 13.3246C98.3514 12.7331 98.4785 12.0983 98.4785 11.4571C98.4785 10.8159 98.3514 10.1811 98.1047 9.58965C97.858 8.99815 97.4966 8.46173 97.0414 8.01156C96.5863 7.5614 96.0464 7.20646 95.4533 6.96739C94.8602 6.72832 94.2256 6.60988 93.5865 6.61894H89.5074C89.2366 6.57354 88.9624 6.55141 88.6879 6.5528C88.4542 6.55788 88.2212 6.57998 87.9907 6.61894H21.9815C21.7106 6.57354 21.4364 6.55141 21.1619 6.5528ZM55.0002 33.5124C55.8437 33.5124 56.6833 34.2255 57.5249 35.648L58.9663 37.7363C62.1303 42.3229 69.4701 53.6556 69.4701 59.8388C69.4701 67.8412 62.9779 74.3533 55.0002 74.3533C47.0225 74.3533 40.5304 67.8412 40.5304 59.8388C40.5304 53.6556 47.875 42.3229 51.0342 37.7363L52.4661 35.648C53.3102 34.2255 54.1568 33.5124 55.0002 33.5124Z" fill="white"/>
</svg>
