<svg width="110" height="110" viewBox="0 0 110 110" fill="none" xmlns="http://www.w3.org/2000/svg">
<path d="M70.4214 38.4935L70.4264 38.5106L70.4321 38.5275C70.578 38.9652 70.4768 39.453 70.1945 39.7823L70.1733 39.8071L70.1537 39.8331C69.8414 40.2496 69.3767 40.4573 68.9037 40.4573H41.5745C41.1015 40.4573 40.6369 40.2496 40.3245 39.8331C40.0287 39.4388 39.9547 38.9929 40.0671 38.4586L44.3251 23.9815C44.5501 23.2572 45.1271 22.8145 45.8447 22.8145H64.6335C65.2852 22.8145 65.9337 23.2764 66.1532 23.9815C66.1537 23.9833 66.1543 23.985 66.1548 23.9868L70.4214 38.4935ZM48.2014 47.9173L48.2024 47.9215L51.6169 62.4332C51.7221 62.9134 51.6136 63.3535 51.3206 63.6954L51.2717 63.7524L51.2319 63.8162C51.021 64.1536 50.6069 64.3703 50.1149 64.3703H22.7857C22.3127 64.3703 21.8481 64.1627 21.5357 63.7462C21.2399 63.3518 21.1659 62.9059 21.2783 62.3717L25.5363 47.8944C25.7613 47.1702 26.3383 46.7275 27.0559 46.7275H46.6988C47.4188 46.7275 48.0477 47.251 48.2014 47.9173ZM89.2102 62.4065L89.2153 62.4236L89.2209 62.4406C89.3668 62.8782 89.2656 63.3661 88.9833 63.6954L88.9621 63.7201L88.9426 63.7462C88.6302 64.1627 88.1656 64.3703 87.6925 64.3703H60.3634C59.8797 64.3703 59.3905 64.1514 59.0726 63.7804C58.7781 63.4369 58.6765 62.9183 58.7714 62.5387L58.7715 62.5387L58.7747 62.5252L62.1849 48.0318C62.4252 47.2211 63.0922 46.7275 63.7795 46.7275H83.4223C84.074 46.7275 84.7225 47.1894 84.942 47.8945C84.9425 47.8963 84.9431 47.898 84.9436 47.8998L89.2102 62.4065ZM33.6978 86.3195L33.7028 86.3367L33.7085 86.3536C33.8544 86.7913 33.7532 87.2791 33.4709 87.6084L33.4497 87.6331L33.4301 87.6592C33.1178 88.0757 32.6531 88.2834 32.1801 88.2834H4.85093C4.37792 88.2834 3.91329 88.0757 3.60091 87.6592C3.30515 87.2648 3.23107 86.819 3.3435 86.2847L7.59986 71.8128C7.6004 71.8111 7.60095 71.8093 7.6015 71.8075C7.82648 71.0833 8.40347 70.6405 9.12112 70.6405H27.9099C28.5616 70.6405 29.2101 71.1024 29.4296 71.8075C29.4301 71.8093 29.4307 71.8111 29.4312 71.8128L33.6978 86.3195ZM66.9902 71.8303L66.9912 71.8345L70.4046 86.3411C70.405 86.3429 70.4054 86.3447 70.4058 86.3465C70.5109 86.8266 70.4024 87.2666 70.1094 87.6084L70.0605 87.6655L70.0207 87.7292C69.8098 88.0666 69.3957 88.2834 68.9037 88.2834H41.5745C41.1015 88.2834 40.6369 88.0757 40.3245 87.6592C40.0287 87.2648 39.9547 86.819 40.0671 86.2847L44.3235 71.8128C44.324 71.8111 44.3245 71.8093 44.3251 71.8075C44.5501 71.0833 45.1271 70.6405 45.8447 70.6405H65.4876C66.2076 70.6405 66.8365 71.1641 66.9902 71.8303ZM80.1256 71.9196L80.1279 71.9099L80.13 71.9001C80.2814 71.1937 80.8757 70.7256 81.6292 70.7256H101.272C101.923 70.7256 102.572 71.1883 102.792 71.8944C102.792 71.8962 102.793 71.8979 102.793 71.8996L107.06 86.4063L107.065 86.4234L107.071 86.4404C107.216 86.8777 107.115 87.3639 106.833 87.6935L106.804 87.7271L106.779 87.763C106.571 88.0542 106.131 88.2834 105.627 88.2834H78.2981C77.8144 88.2834 77.3253 88.0644 77.0074 87.6935C76.7129 87.35 76.6113 86.8313 76.7062 86.4517L76.7063 86.4517L76.7094 86.4382L80.1256 71.9196Z" fill="#EEF0FE" stroke="white" stroke-width="2"/>
</svg>
