<svg width="110" height="110" viewBox="0 0 110 110" fill="none" xmlns="http://www.w3.org/2000/svg">
<path d="M30.014 11.5215C28.884 11.6271 28.0505 12.6509 28.1547 13.7965C28.2589 14.9421 29.2687 15.7872 30.3987 15.6815H43.8623L8.408 51.6269C7.59056 52.4557 7.59056 53.7882 8.408 54.617C9.22544 55.4457 10.5397 55.4457 11.3572 54.617L46.8115 18.6716V32.3217C46.8035 33.0692 47.1882 33.768 47.8293 34.1499C48.4704 34.5236 49.2558 34.5236 49.8969 34.1499C50.538 33.768 50.9227 33.0692 50.9147 32.3217V12.5215C50.9147 11.9692 50.467 11.5215 49.9147 11.5215H30.3987C30.3345 11.5215 30.2704 11.5215 30.2063 11.5215C30.1422 11.5215 30.0781 11.5215 30.014 11.5215ZM75.4824 19.8416C74.3778 19.8416 73.4824 20.737 73.4824 21.8416V98.9625C73.4824 100.067 74.3778 100.962 75.4824 100.962H100.205C101.309 100.962 102.205 100.067 102.205 98.9625V21.8416C102.205 20.737 101.309 19.8416 100.205 19.8416H75.4824ZM42.6567 46.8819C41.5521 46.8819 40.6567 47.7773 40.6567 48.8819V98.9625C40.6567 100.067 41.5521 100.962 42.6567 100.962H67.3792C68.4837 100.962 69.3792 100.067 69.3792 98.9625V48.8819C69.3792 47.7773 68.4837 46.8819 67.3792 46.8819H42.6567ZM9.83098 69.7621C8.72642 69.7621 7.83098 70.6576 7.83098 71.7621V98.9625C7.83098 100.067 8.72642 100.962 9.83098 100.962H34.5535C35.658 100.962 36.5535 100.067 36.5535 98.9625V71.7621C36.5535 70.6576 35.658 69.7621 34.5535 69.7621H9.83098Z" fill="#EEF0FE"/>
</svg>
