<svg width="120" height="120" viewBox="0 0 120 120" fill="none" xmlns="http://www.w3.org/2000/svg">
<path d="M60 2C59.0051 2 58.0139 2.37904 57.2573 3.13504L45.5984 14.7065C44.4843 15.807 44.1472 17.46 44.7483 18.9051C45.3494 20.3451 46.771 21.2857 48.3411 21.2857H54.8183V36.7143C54.8085 37.3958 54.9354 38.0724 55.1914 38.7048C55.4475 39.3372 55.8276 39.9128 56.3098 40.3981C56.7919 40.8835 57.3664 41.2688 57.9999 41.5319C58.6334 41.7949 59.3133 41.9304 60 41.9304C60.6867 41.9304 61.3666 41.7949 62.0001 41.5319C62.6336 41.2688 63.2081 40.8835 63.6902 40.3981C64.1724 39.9128 64.5525 39.3372 64.8085 38.7048C65.0646 38.0724 65.1914 37.3958 65.1817 36.7143V21.2857H71.6589C73.229 21.2857 74.6455 20.3451 75.2517 18.9051C75.8528 17.4651 75.5157 15.8122 74.4016 14.7065L62.7427 3.13504C61.9861 2.37904 60.9949 2 60 2ZM101.454 27.7143C100.459 27.7143 99.4678 28.0933 98.7112 28.8493L87.0523 40.4208C85.9382 41.5213 85.6011 43.1743 86.2022 44.6194C86.8033 46.0594 88.2249 47 89.795 47H96.2722V57.2857C96.2625 57.9672 96.3893 58.6438 96.6454 59.2762C96.9014 59.9086 97.2816 60.4842 97.7637 60.9696C98.2458 61.4549 98.8203 61.8403 99.4538 62.1033C100.087 62.3664 100.767 62.5018 101.454 62.5018C102.141 62.5018 102.82 62.3664 103.454 62.1033C104.088 61.8403 104.662 61.4549 105.144 60.9696C105.626 60.4842 106.006 59.9086 106.262 59.2762C106.519 58.6438 106.645 57.9672 106.636 57.2857V47H113.113C114.683 47 116.099 46.0594 116.706 44.6194C117.307 43.1794 116.97 41.5265 115.856 40.4208L104.197 28.8493C103.44 28.0933 102.449 27.7143 101.454 27.7143ZM18.5461 38C17.5512 38 16.5599 38.379 15.8034 39.135L4.14448 50.7065C3.03041 51.807 2.69327 53.46 3.29435 54.9051C3.89543 56.3451 5.31709 57.2857 6.88716 57.2857H13.3643V72.7143C13.3546 73.3958 13.4815 74.0724 13.7375 74.7048C13.9936 75.3372 14.3737 75.9128 14.8558 76.3981C15.338 76.8835 15.9125 77.2688 16.546 77.5319C17.1795 77.7949 17.8594 77.9304 18.5461 77.9304C19.2328 77.9304 19.9126 77.7949 20.5462 77.5319C21.1797 77.2688 21.7542 76.8835 22.2363 76.3981C22.7184 75.9128 23.0986 75.3372 23.3546 74.7048C23.6107 74.0724 23.7375 73.3958 23.7278 72.7143V57.2857H30.205C31.7751 57.2857 33.1915 56.3451 33.7978 54.9051C34.3989 53.4651 34.0617 51.8122 32.9477 50.7065L21.2888 39.135C20.5322 38.379 19.541 38 18.5461 38ZM49.6365 52.1429C46.7762 52.1429 44.4548 54.4469 44.4548 57.2857V113.857C44.4548 116.696 46.7762 119 49.6365 119H70.3635C73.2238 119 75.5452 116.696 75.5452 113.857V57.2857C75.5452 54.4469 73.2238 52.1429 70.3635 52.1429H49.6365ZM91.0904 72.7143C88.2301 72.7143 85.9087 75.0183 85.9087 77.8571V113.857C85.9087 116.696 88.2301 119 91.0904 119H111.817C114.678 119 116.999 116.696 116.999 113.857V77.8571C116.999 75.0183 114.678 72.7143 111.817 72.7143H91.0904ZM8.18259 88.1429C5.32227 88.1429 3.00085 90.4469 3.00085 93.2857V113.857C3.00085 116.696 5.32227 119 8.18259 119H28.9096C31.7699 119 34.0913 116.696 34.0913 113.857V93.2857C34.0913 90.4469 31.7699 88.1429 28.9096 88.1429H8.18259Z" fill="#2841CF"/>
</svg>
