<svg width="120" height="120" viewBox="0 0 120 120" fill="none" xmlns="http://www.w3.org/2000/svg">
<path d="M87.4783 0C85.2691 0 83.4783 1.79086 83.4783 4V116C83.4783 118.209 85.2691 120 87.4783 120H116C118.209 120 120 118.209 120 116V4C120 1.79086 118.209 0 116 0H87.4783ZM88.6956 5.21739H114.783V114.783H88.6956V5.21739ZM4 33.913C1.79086 33.913 0 35.7039 0 37.913V116C0 118.209 1.79086 120 4 120H32.5217C34.7309 120 36.5217 118.209 36.5217 116V37.913C36.5217 35.7039 34.7309 33.913 32.5217 33.913H4ZM5.21739 39.1304H31.3043V114.783H5.21739V39.1304ZM45.7391 62.6087C43.53 62.6087 41.7391 64.3996 41.7391 66.6087V116C41.7391 118.209 43.53 120 45.7391 120H74.2609C76.47 120 78.2609 118.209 78.2609 116V66.6087C78.2609 64.3996 76.47 62.6087 74.2609 62.6087H45.7391ZM46.9565 67.8261H73.0435V114.783H46.9565V67.8261Z" fill="#2841CF"/>
<path d="M88.6956 5.21739H114.783V114.783H88.6956V5.21739Z" fill="#2841CF"/>
<path d="M46.9565 67.8261H73.0435V114.783H46.9565V67.8261Z" fill="#2841CF"/>
<path d="M5.21739 39.1304H31.3043V114.783H5.21739V39.1304Z" fill="#2841CF"/>
</svg>
