<svg width="396" height="396" viewBox="0 0 396 396" fill="none" xmlns="http://www.w3.org/2000/svg">
<path d="M396 198C396 307.352 307.352 396 198 396C88.6476 396 0 307.352 0 198C0 91.3298 84.3522 4.3612 189.992 0.158998C194.406 -0.0166164 198 3.58172 198 8V50.6667C198 55.0849 194.411 58.6428 190 58.8925C116.771 63.038 58.6667 123.734 58.6667 198C58.6667 274.952 121.048 337.333 198 337.333C274.952 337.333 337.333 274.952 337.333 198C337.333 182.674 334.859 167.926 330.288 154.133C328.904 149.959 330.862 145.336 334.939 143.688L374.525 127.68C378.634 126.018 383.328 128.009 384.801 132.19C392.054 152.78 396 174.929 396 198Z" fill="#344CD2"/>
</svg>
