<svg width="32" height="32" viewBox="0 0 32 32" fill="none" xmlns="http://www.w3.org/2000/svg">
<path d="M21.0348 22.5547L21.0349 22.5547L22.1588 21.5748C22.1589 21.5747 22.1591 21.5746 22.1592 21.5745C22.9738 20.8684 23.7585 20.7472 24.5576 20.9539C25.3998 21.1717 26.2881 21.7633 27.2265 22.5666C27.2268 22.5668 27.227 22.567 27.2273 22.5672L28.3704 23.5518L28.372 23.5532C29.322 24.3644 29.9967 25.1133 30.2435 25.8005C30.3608 26.1271 30.3763 26.4263 30.2879 26.7166C30.1977 27.0125 29.9852 27.3456 29.5663 27.7086L29.5642 27.7105L28.5497 28.5999L28.5343 28.6134L28.52 28.6282C27.8554 29.3153 25.6957 31.2328 22.1188 31.274C17.8087 31.3195 13.1486 28.6255 8.30029 23.0376L8.29999 23.0373C3.4461 17.4531 1.42094 12.4688 2.06603 8.20938L2.06608 8.20905C2.60051 4.66448 4.7999 2.8025 5.57604 2.24171L5.59513 2.22791L5.61284 2.21239L6.62617 1.32391C7.04448 0.96164 7.40443 0.798479 7.71091 0.750877C8.01202 0.704108 8.30746 0.761586 8.61575 0.923386C9.26392 1.26358 9.91315 2.03389 10.588 3.0818C10.5882 3.08222 10.5885 3.08264 10.5888 3.08306L11.3996 4.35937L11.4003 4.36035C12.0664 5.40334 12.5282 6.36548 12.6266 7.22895C12.7199 8.04819 12.4908 8.80633 11.6807 9.51236L11.6805 9.51253L10.5528 10.4962C10.4887 10.5508 10.3986 10.611 10.2606 10.7033C10.2379 10.7185 10.2138 10.7346 10.1884 10.7517C10.0217 10.8635 9.81878 11.0031 9.61807 11.1761C9.21149 11.5265 8.79777 12.0279 8.64713 12.7714C8.49787 13.5081 8.62174 14.4093 9.13832 15.5354C9.65415 16.6598 10.5753 18.0394 12.0695 19.756C13.5635 21.4761 14.8024 22.5812 15.8445 23.2491C16.8882 23.9181 17.7635 24.1666 18.5138 24.1216C19.2712 24.0762 19.8252 23.7365 20.229 23.3833C20.4283 23.209 20.595 23.0278 20.7291 22.879C20.7468 22.8594 20.7636 22.8407 20.7796 22.8229C20.8956 22.6939 20.9702 22.611 21.0348 22.5547Z" fill="white" stroke="white"/>
</svg>
