<svg width="573" height="575" viewBox="0 0 573 575" fill="none" xmlns="http://www.w3.org/2000/svg">
<path d="M286.507 574.133C398.847 574.133 496.298 509.002 543.221 414.444C562.278 376.04 573 332.783 573 287.063L485.125 287.064C485.125 335.47 467.797 379.899 439.031 414.444C402.568 458.233 347.728 486.141 286.506 486.141C225.285 486.141 170.44 458.233 133.974 414.444C105.206 379.899 87.8755 335.47 87.8755 287.064L0 287.063C0 332.783 10.7223 376.04 29.7796 414.444C76.7028 509.002 174.157 574.133 286.507 574.133Z" fill="#EEF0FE"/>
<path d="M286.493 0C128.527 0 0 128.78 0 287.07L87.8755 287.069C87.8755 177.304 176.974 87.9923 286.494 87.9923C396.013 87.9923 485.125 177.304 485.125 287.069L573 287.07C573 128.78 444.473 0 286.493 0Z" fill="#EEF0FE"/>
</svg>
