<svg width="56" height="56" viewBox="0 0 56 56" fill="none" xmlns="http://www.w3.org/2000/svg">
<g opacity="0.4">
<path d="M56 28C56 43.464 43.464 56 28 56C12.536 56 0 43.464 0 28C0 13.2086 11.4693 1.09598 25.9997 0.0703479C27.1015 -0.00742459 28 0.895431 28 2V6.2963C28 7.40087 27.1021 8.28563 26.003 8.39624C16.0589 9.39713 8.2963 17.792 8.2963 28C8.2963 38.8821 17.1179 47.7037 28 47.7037C38.8821 47.7037 47.7037 38.8821 47.7037 28C47.7037 26.1353 47.4447 24.331 46.9606 22.6213C46.6611 21.5636 47.1459 20.4081 48.165 19.996L52.154 18.3829C53.1814 17.9675 54.3581 18.4649 54.6933 19.5212C55.5421 22.1958 56 25.0444 56 28Z" fill="white"/>
<path d="M19.3913 19.4502C19.2875 19.4502 19.188 19.4912 19.1146 19.564C19.0412 19.6369 19 19.7358 19 19.8388V21.3934C19 21.4964 19.0412 21.5953 19.1146 21.6682C19.188 21.7411 19.2875 21.782 19.3913 21.782H19.7826V33.0525C19.7826 33.267 19.9575 33.4411 20.1739 33.4411H27.6087V34.2897C27.1543 34.4507 26.8261 34.8784 26.8261 35.3843C26.8261 36.0271 27.3528 36.5502 28 36.5502C28.6472 36.5502 29.1739 36.0271 29.1739 35.3843C29.1739 34.8784 28.8457 34.4507 28.3913 34.2897V33.4411H35.8261C36.0425 33.4411 36.2174 33.267 36.2174 33.0525V21.782H36.6087C36.7125 21.782 36.812 21.7411 36.8854 21.6682C36.9588 21.5953 37 21.4964 37 21.3934V19.8388C37 19.7358 36.9588 19.6369 36.8854 19.564C36.812 19.4912 36.7125 19.4502 36.6087 19.4502H19.3913ZM19.7826 20.2275H36.2174V21.0047H35.8261H20.1739H19.7826V20.2275ZM33.087 23.7252C33.5193 23.7252 33.8696 24.073 33.8696 24.5025C33.8696 24.9319 33.5193 25.2797 33.087 25.2797C33.042 25.2797 32.9982 25.2742 32.9555 25.2668L29.9061 28.9004C29.937 28.9836 29.9565 29.0721 29.9565 29.1661C29.9565 29.5955 29.6063 29.9434 29.1739 29.9434C28.7415 29.9434 28.3913 29.5955 28.3913 29.1661C28.3913 29.081 28.4087 29.0013 28.4341 28.9247L26.2017 26.4305C26.1504 26.4406 26.0975 26.4456 26.0435 26.4456C25.9738 26.4456 25.9078 26.4335 25.8432 26.4168L23.6666 28.5786C23.6838 28.6423 23.6957 28.7083 23.6957 28.7775C23.6957 29.2069 23.3454 29.5547 22.913 29.5547C22.4807 29.5547 22.1304 29.2069 22.1304 28.7775C22.1304 28.348 22.4807 28.0002 22.913 28.0002C22.9827 28.0002 23.0487 28.0123 23.1133 28.029L25.2899 25.8672C25.2727 25.8035 25.2609 25.7376 25.2609 25.6684C25.2609 25.2389 25.6111 24.8911 26.0435 24.8911C26.4759 24.8911 26.8261 25.2389 26.8261 25.6684C26.8261 25.7535 26.8087 25.8332 26.7833 25.9098L29.0157 28.404C29.067 28.3939 29.1199 28.3888 29.1739 28.3888C29.2189 28.3888 29.2631 28.3944 29.3061 28.4017L32.3548 24.7681C32.3239 24.685 32.3043 24.5961 32.3043 24.5025C32.3043 24.073 32.6546 23.7252 33.087 23.7252Z" fill="white"/>
<path d="M19.7826 20.2275H36.2174V21.0047H35.8261H20.1739H19.7826V20.2275Z" fill="white"/>
</g>
</svg>
