<svg width="120" height="120" viewBox="0 0 120 120" fill="none" xmlns="http://www.w3.org/2000/svg">
<path d="M57.7266 7C36.2628 7 18.2618 22.2713 14.1734 42.4458C13.8624 42.4017 13.6426 42.2648 13.3315 42.2648H4.44385C1.99973 42.2648 0 44.2513 0 46.6793C0 49.1073 1.99973 51.0939 4.44385 51.0939H13.2881V51.1456C13.2881 75.4699 33.241 95.2913 57.7266 95.2913C68.3474 95.2913 78.1697 91.5313 85.8131 85.3068L112.346 111.665C114.035 113.386 116.878 113.473 118.656 111.751C120.389 110.074 120.476 107.292 118.743 105.526C118.698 105.482 118.7 105.441 118.656 105.396L92.0797 79.0384C98.3899 71.4454 102.165 61.7406 102.165 51.1456V51.0939H115.54C117.984 51.0939 119.984 49.1073 119.984 46.6793C119.984 44.2513 117.984 42.2648 115.54 42.2648H102.209C101.897 42.2648 101.591 42.4017 101.28 42.4458C97.1915 22.2713 79.2349 7 57.7266 7ZM75.1896 33.5305C75.4535 33.4868 75.7245 33.4877 76.0315 33.5305C76.07 33.5348 76.1063 33.5515 76.1443 33.5564C76.3735 33.5951 76.6094 33.627 76.8387 33.7029C77.1497 33.7912 77.4139 33.924 77.6806 34.0564C77.8583 34.1447 78.0756 34.2775 78.2534 34.41L78.3923 34.5393C78.4811 34.6276 78.6158 34.6321 78.7047 34.7204L86.2558 42.2648H97.7647C99.4533 42.2648 100.88 43.2415 101.636 44.61C101.947 45.2281 102.209 45.9289 102.209 46.6793C102.209 47.0766 102.08 47.3867 101.992 47.7399C101.503 49.6381 99.8533 51.0939 97.7647 51.0939H84.4331C83.8554 51.0939 83.2826 50.9611 82.7493 50.7404C82.2161 50.5197 81.7269 50.2151 81.2825 49.8178L76.1269 44.6531L56.9281 71.313C56.1282 72.4607 54.8426 73.1226 53.4651 73.1667H53.3262C51.993 73.1667 50.7074 72.5535 49.8631 71.494L33.4157 51.0939H17.7754C15.5979 51.0939 13.8259 49.5054 13.4704 47.3864C13.426 47.1656 13.3315 46.9442 13.3315 46.6793C13.3315 45.973 13.5065 45.3563 13.8176 44.7825C14.5286 43.3256 15.9979 42.2648 17.7754 42.2648H35.5508C36.8839 42.2648 38.1782 42.8866 39.0225 43.9461L53.1526 61.4233L71.9435 35.2894C71.9879 35.2453 71.9935 35.2042 72.0824 35.1601L72.2125 35.0308C72.257 34.9425 72.3059 34.8086 72.3948 34.7204C72.5281 34.5879 72.7041 34.5414 72.8375 34.4531L72.8461 34.4444C73.0665 34.2702 73.3295 34.1009 73.5926 33.9702C73.8148 33.8378 74.081 33.7481 74.3477 33.6598C74.6587 33.5715 74.8785 33.5305 75.1896 33.5305Z" fill="#2841CF"/>
</svg>
