<svg width="24" height="25" viewBox="0 0 24 25" fill="none" xmlns="http://www.w3.org/2000/svg">
<path d="M14.4829 6.04832C14.3368 6.03302 14.1865 6.05768 14.0485 6.12488C13.7741 6.25848 13.6001 6.53803 13.6001 6.84363V10.0983H3.2001C2.3161 10.0983 1.6001 10.8143 1.6001 11.6983V13.2983C1.6001 14.1823 2.3161 14.8983 3.2001 14.8983H13.6001V18.1561C13.6001 18.4625 13.7741 18.7413 14.0485 18.8749C14.1605 18.9301 14.2809 18.9561 14.4001 18.9561C14.5753 18.9561 14.7491 18.9001 14.8923 18.7889L22.1485 13.1311C22.3429 12.9791 22.4563 12.7486 22.4563 12.5014C22.4563 12.2542 22.3429 12.0214 22.1485 11.8702L14.8923 6.21238C14.7715 6.11838 14.629 6.06362 14.4829 6.04832Z" fill="#152AA1"/>
</svg>
