<svg width="40" height="40" viewBox="0 0 40 40" fill="none" xmlns="http://www.w3.org/2000/svg">
<g clip-path="url(#clip0_13_41)">
<path d="M20 39.9999C30.5202 39.9999 39.1433 31.8773 39.9399 21.5614C40.0106 20.6463 39.3779 19.8216 38.4683 19.6994C37.5163 19.5715 36.6193 19.5738 35.631 19.7063C34.7107 19.8298 34.0894 20.6594 33.9861 21.5821C33.1998 28.6102 27.238 34.074 20 34.074C12.2271 34.074 5.92593 27.7728 5.92593 19.9999C5.92593 13.236 10.6973 7.5866 17.0579 6.2338C18.6585 5.89339 20 4.59925 20 2.96285C20 1.32645 18.6657 -0.0231778 17.0469 0.216392C7.40148 1.64385 0 9.9575 0 19.9999C0 31.0456 8.95431 39.9999 20 39.9999Z" fill="white"/>
<path d="M16.9373 22.7074C16.619 23.1587 15.9951 23.2665 15.5438 22.9482L13.2553 21.3343C12.804 21.0159 12.6961 20.392 13.0144 19.9407L20.253 9.6769C20.5713 9.2255 21.1952 9.1177 21.6465 9.436L25.5605 12.1964C26.0118 12.5147 26.6358 12.4069 26.9541 11.9555L30.436 7.0184C30.6906 6.6574 30.6042 6.1583 30.2431 5.90386C29.7206 5.53576 29.8197 4.73381 30.416 4.50396L35.5149 2.53863C36.1802 2.28219 36.8925 2.78453 36.8742 3.49733L36.7343 8.9599C36.7179 9.5988 35.9957 9.9613 35.4736 9.5927C35.1127 9.3379 34.6135 9.4241 34.3589 9.7851L28.1103 18.6451C27.792 19.0964 27.1681 19.2043 26.7168 18.886L22.8028 16.1256C22.3514 15.8073 21.7275 15.9151 21.4092 16.3665L16.9373 22.7074Z" fill="white"/>
</g>
<defs>
<clipPath id="clip0_13_41">
<rect width="40" height="40" fill="white"/>
</clipPath>
</defs>
</svg>
