<svg width="539" height="541" viewBox="0 0 539 541" fill="none" xmlns="http://www.w3.org/2000/svg">
<path d="M269.507 540.066C375.181 540.066 466.85 478.799 510.988 389.852C528.914 353.727 539 313.036 539 270.03L456.339 270.031C456.339 315.565 440.039 357.357 412.98 389.852C378.681 431.043 327.095 457.295 269.506 457.295C211.917 457.295 160.327 431.043 126.025 389.852C98.9633 357.357 82.6612 315.565 82.6612 270.031L0 270.03C0 313.036 10.0861 353.727 28.0126 389.852C72.1515 478.799 163.823 540.066 269.507 540.066Z" fill="#EEF0FE"/>
<path d="M269.493 0C120.901 0 0 121.138 0 270.036L82.6612 270.036C82.6612 166.783 166.473 82.7711 269.494 82.7711C372.515 82.7711 456.339 166.783 456.339 270.036L539 270.036C539 121.138 418.099 0 269.493 0Z" fill="#EEF0FE"/>
</svg>
