<svg width="439" height="451" viewBox="0 0 439 451" fill="none" xmlns="http://www.w3.org/2000/svg">
<path d="M239.633 424.5C159.045 435.664 80.391 397.33 39.4027 328.304C35.2678 321.341 38.2553 312.498 45.5029 308.885L70.6241 296.538L83.3886 290.18C90.6264 286.575 99.3492 289.572 103.754 296.353C130.929 338.181 180.175 361.091 230.6 354.105C301.581 344.272 351.338 278.663 341.529 207.857C332.396 141.932 274.805 94.3829 209.624 96.0677C201.532 96.2769 194.118 90.7671 193.007 82.7491L189.477 62.4623L186.586 41.5932C185.475 33.5752 191.076 26.1185 199.153 25.5826C247.291 22.3885 294.438 36.4234 333.288 65.7872C376.063 98.118 403.666 145.147 411.02 198.23C418.373 251.304 404.596 304.075 372.22 346.808C339.854 389.549 292.762 417.139 239.633 424.5Z" fill="#354CDC"/>
</svg>
