<svg width="366" height="374" viewBox="0 0 366 374" fill="none" xmlns="http://www.w3.org/2000/svg">
<path d="M178.865 374C136.664 374 95.2757 359.55 62.3219 333.312C34.1241 310.868 12.896 280.481 1.4521 246.569C-1.37403 238.194 3.96521 229.51 12.5551 227.428L64.718 214.779C73.3021 212.698 81.8378 218.039 85.2679 226.179C91.8409 241.777 102.328 255.702 115.706 266.357C133.557 280.561 155.989 288.386 178.865 288.386C234.808 288.386 280.324 242.903 280.324 187C280.324 136.515 243.202 94.5275 194.803 86.8639C186.075 85.4819 178.865 78.451 178.865 69.6144V16C178.865 7.16342 186.053 -0.0715332 194.858 0.676575C290.588 8.81036 366 89.2698 366 187C366 290.113 282.052 374 178.865 374Z" fill="#E9ECFD"/>
</svg>
