<svg width="110" height="110" viewBox="0 0 110 110" fill="none" xmlns="http://www.w3.org/2000/svg">
<path d="M13.4596 6.90088C9.86319 6.90088 6.90063 9.86343 6.90063 13.4599V35.3232C6.90063 38.9197 9.86319 41.8822 13.4596 41.8822H20.0186V46.2549C20.0146 46.5446 20.0681 46.8323 20.1761 47.1011C20.2841 47.37 20.4445 47.6147 20.648 47.821C20.8514 48.0273 21.0938 48.1912 21.3611 48.303C21.6284 48.4148 21.9152 48.4724 22.205 48.4724C22.4947 48.4724 22.7816 48.4148 23.0489 48.303C23.3162 48.1912 23.5586 48.0273 23.762 47.821C23.9654 47.6147 24.1258 47.37 24.2339 47.1011C24.3419 46.8323 24.3954 46.5446 24.3913 46.2549V41.8822H35.323C38.9195 41.8822 41.882 38.9197 41.882 35.3232V26.5779H52.8137C53.1034 26.582 53.391 26.5285 53.6599 26.4204C53.9287 26.3124 54.1734 26.152 54.3798 25.9486C54.5861 25.7452 54.7499 25.5028 54.8617 25.2355C54.9736 24.9682 55.0312 24.6813 55.0312 24.3916C55.0312 24.1018 54.9736 23.815 54.8617 23.5477C54.7499 23.2804 54.5861 23.038 54.3798 22.8345C54.1734 22.6311 53.9287 22.4707 53.6599 22.3627C53.391 22.2547 53.1034 22.2011 52.8137 22.2052H41.882V13.4599C41.882 9.86343 38.9195 6.90088 35.323 6.90088H13.4596ZM74.677 6.90088C71.0806 6.90088 68.118 9.86343 68.118 13.4599V22.2052H61.559C61.2693 22.2011 60.9817 22.2547 60.7128 22.3627C60.444 22.4707 60.1993 22.6311 59.9929 22.8345C59.7866 23.038 59.6228 23.2804 59.511 23.5477C59.3991 23.815 59.3415 24.1018 59.3415 24.3916C59.3415 24.6813 59.3991 24.9682 59.511 25.2355C59.6228 25.5028 59.7866 25.7452 59.9929 25.9486C60.1993 26.152 60.444 26.3124 60.7128 26.4204C60.9817 26.5285 61.2693 26.582 61.559 26.5779H68.118V35.3232C68.118 38.9197 71.0806 41.8822 74.677 41.8822H83.4224V52.8139C83.4183 53.1036 83.4718 53.3913 83.5798 53.6601C83.6879 53.929 83.8483 54.1737 84.0517 54.38C84.2551 54.5863 84.4975 54.7502 84.7648 54.862C85.0321 54.9738 85.319 55.0314 85.6087 55.0314C85.8985 55.0314 86.1853 54.9738 86.4526 54.862C86.7199 54.7502 86.9623 54.5863 87.1657 54.38C87.3692 54.1737 87.5296 53.929 87.6376 53.6601C87.7456 53.3913 87.7991 53.1036 87.795 52.8139V41.8822H96.5404C100.137 41.8822 103.099 38.9197 103.099 35.3232V13.4599C103.099 9.86343 100.137 6.90088 96.5404 6.90088H74.677ZM13.4596 11.2736H35.323C36.5583 11.2736 37.5093 12.2245 37.5093 13.4599V24.0243C37.4703 24.2604 37.4703 24.5013 37.5093 24.7374V35.3232C37.5093 36.5586 36.5583 37.5096 35.323 37.5096H22.5423C22.4196 37.4891 22.2953 37.4791 22.1708 37.4797C22.0649 37.482 21.9593 37.492 21.8548 37.5096H13.4596C12.2243 37.5096 11.2733 36.5586 11.2733 35.3232V13.4599C11.2733 12.2245 12.2243 11.2736 13.4596 11.2736ZM74.677 11.2736H96.5404C97.7757 11.2736 98.7267 12.2245 98.7267 13.4599V35.3232C98.7267 36.5586 97.7757 37.5096 96.5404 37.5096H85.9461C85.8233 37.4891 85.699 37.4791 85.5746 37.4797C85.4686 37.482 85.363 37.492 85.2586 37.5096H74.677C73.4417 37.5096 72.4907 36.5586 72.4907 35.3232V13.4599C72.4907 12.2245 73.4417 11.2736 74.677 11.2736ZM22.1708 52.784C21.5917 52.7931 21.0399 53.0315 20.6364 53.447C20.2329 53.8625 20.0107 54.4211 20.0186 55.0003V68.1183H13.4596C9.86319 68.1183 6.90063 71.0808 6.90063 74.6773V96.5406C6.90063 100.137 9.86319 103.1 13.4596 103.1H35.323C38.9195 103.1 41.882 100.137 41.882 96.5406V87.7953H48.441C48.7307 87.7994 49.0184 87.7459 49.2872 87.6378C49.5561 87.5298 49.8008 87.3694 50.0071 87.166C50.2134 86.9625 50.3772 86.7201 50.4891 86.4529C50.6009 86.1856 50.6585 85.8987 50.6585 85.609C50.6585 85.3192 50.6009 85.0324 50.4891 84.7651C50.3772 84.4978 50.2134 84.2554 50.0071 84.0519C49.8008 83.8485 49.5561 83.6881 49.2872 83.5801C49.0184 83.472 48.7307 83.4185 48.441 83.4226H41.882V74.6773C41.882 71.0808 38.9195 68.1183 35.323 68.1183H24.3913V55.0003C24.3953 54.7078 24.3406 54.4174 24.2304 54.1464C24.1201 53.8755 23.9567 53.6294 23.7496 53.4227C23.5426 53.216 23.2961 53.053 23.025 52.9433C22.7538 52.8336 22.4633 52.7795 22.1708 52.784ZM85.5746 59.343C84.9954 59.3521 84.4436 59.5905 84.0401 60.006C83.6366 60.4215 83.4144 60.9801 83.4224 61.5593V65.9319H74.677C71.0806 65.9319 68.118 68.8945 68.118 72.4909V83.4226H57.1864C56.8966 83.4185 56.609 83.472 56.3401 83.5801C56.0713 83.6881 55.8266 83.8485 55.6203 84.0519C55.414 84.2554 55.2501 84.4978 55.1383 84.7651C55.0265 85.0324 54.9689 85.3192 54.9689 85.609C54.9689 85.8987 55.0265 86.1856 55.1383 86.4529C55.2501 86.7201 55.414 86.9625 55.6203 87.166C55.8266 87.3694 56.0713 87.5298 56.3401 87.6378C56.609 87.7459 56.8966 87.7994 57.1864 87.7953H68.118V94.3543C68.118 97.9508 71.0806 100.913 74.677 100.913H96.5404C100.137 100.913 103.099 97.9508 103.099 94.3543V72.4909C103.099 68.8945 100.137 65.9319 96.5404 65.9319H87.795V61.5593C87.7991 61.2668 87.7443 60.9764 87.6341 60.7054C87.5239 60.4345 87.3604 60.1884 87.1533 59.9817C86.9463 59.7751 86.6999 59.612 86.4287 59.5023C86.1575 59.3926 85.8671 59.3385 85.5746 59.343ZM74.677 70.3046H85.2415C85.4776 70.3436 85.7185 70.3436 85.9546 70.3046H96.5404C97.7757 70.3046 98.7267 71.2556 98.7267 72.4909V94.3543C98.7267 95.5896 97.7757 96.5406 96.5404 96.5406H74.677C73.4417 96.5406 72.4907 95.5896 72.4907 94.3543V85.9762C72.5297 85.7401 72.5297 85.4992 72.4907 85.2631V72.4909C72.4907 71.2556 73.4417 70.3046 74.677 70.3046ZM13.4596 72.4909H35.323C36.5583 72.4909 37.5093 73.4419 37.5093 74.6773V96.5406C37.5093 97.776 36.5583 98.727 35.323 98.727H13.4596C12.2243 98.727 11.2733 97.776 11.2733 96.5406V74.6773C11.2733 73.4419 12.2243 72.4909 13.4596 72.4909Z" fill="#344CD2"/>
<path d="M13.4596 11.2736H35.323C36.5583 11.2736 37.5093 12.2245 37.5093 13.4599V24.0243C37.4703 24.2604 37.4703 24.5013 37.5093 24.7374V35.3232C37.5093 36.5586 36.5583 37.5096 35.323 37.5096H22.5423C22.4196 37.4891 22.2953 37.4791 22.1708 37.4797C22.0649 37.482 21.9593 37.492 21.8548 37.5096H13.4596C12.2243 37.5096 11.2733 36.5586 11.2733 35.3232V13.4599C11.2733 12.2245 12.2243 11.2736 13.4596 11.2736Z" fill="#344CD2"/>
<path d="M74.677 11.2736H96.5404C97.7757 11.2736 98.7267 12.2245 98.7267 13.4599V35.3232C98.7267 36.5586 97.7757 37.5096 96.5404 37.5096H85.9461C85.8233 37.4891 85.699 37.4791 85.5746 37.4797C85.4686 37.482 85.363 37.492 85.2586 37.5096H74.677C73.4417 37.5096 72.4907 36.5586 72.4907 35.3232V13.4599C72.4907 12.2245 73.4417 11.2736 74.677 11.2736Z" fill="#344CD2"/>
<path d="M74.677 70.3046H85.2415C85.4776 70.3436 85.7185 70.3436 85.9546 70.3046H96.5404C97.7757 70.3046 98.7267 71.2556 98.7267 72.4909V94.3543C98.7267 95.5896 97.7757 96.5406 96.5404 96.5406H74.677C73.4417 96.5406 72.4907 95.5896 72.4907 94.3543V85.9762C72.5297 85.7401 72.5297 85.4992 72.4907 85.2631V72.4909C72.4907 71.2556 73.4417 70.3046 74.677 70.3046Z" fill="#344CD2"/>
<path d="M13.4596 72.4909H35.323C36.5583 72.4909 37.5093 73.4419 37.5093 74.6773V96.5406C37.5093 97.776 36.5583 98.727 35.323 98.727H13.4596C12.2243 98.727 11.2733 97.776 11.2733 96.5406V74.6773C11.2733 73.4419 12.2243 72.4909 13.4596 72.4909Z" fill="#344CD2"/>
</svg>
