<svg width="379" height="386" viewBox="0 0 379 386" fill="none" xmlns="http://www.w3.org/2000/svg">
<path d="M186.117 386C142.66 386 100.038 371.109 66.1027 344.07C34.8372 319.168 11.8923 284.775 0.886445 246.576C-0.336821 242.33 2.31593 237.999 6.60977 236.957L76.8011 219.925C81.094 218.883 85.389 221.531 86.7644 225.729C93.0801 245.005 105.068 262.315 121.077 275.073C139.46 289.711 162.56 297.774 186.117 297.774C243.727 297.774 290.599 250.904 290.599 193.296C290.599 138.379 248.004 93.2203 194.117 89.1209C189.712 88.7858 186.117 85.2361 186.117 80.8177V8.59192C186.117 4.17365 189.71 0.574768 194.124 0.756073C296.687 4.96826 378.827 89.7197 378.827 193.296C378.827 299.554 292.379 386 186.117 386Z" fill="#354CDC"/>
</svg>
