<svg width="366" height="374" viewBox="0 0 366 374" fill="none" xmlns="http://www.w3.org/2000/svg">
<path d="M187.135 374C229.336 374 270.724 359.55 303.678 333.312C331.876 310.868 353.104 280.481 364.548 246.569C367.374 238.194 362.035 229.51 353.445 227.428L301.282 214.779C292.698 212.698 284.162 218.039 280.732 226.179C274.159 241.777 263.672 255.702 250.294 266.357C232.443 280.561 210.011 288.386 187.135 288.386C131.192 288.386 85.6764 242.903 85.6764 187C85.6764 136.515 122.798 94.5275 171.197 86.8639C179.925 85.4819 187.135 78.451 187.135 69.6144V16C187.135 7.16342 179.947 -0.0715332 171.142 0.676575C75.4123 8.81036 0 89.2698 0 187C0 290.113 83.9478 374 187.135 374Z" fill="#E9ECFD"/>
</svg>
