<svg width="439" height="451" viewBox="0 0 439 451" fill="none" xmlns="http://www.w3.org/2000/svg">
<path d="M239.633 424.5C159.045 435.664 80.391 397.329 39.4027 328.304C35.2678 321.341 38.2553 312.498 45.5029 308.885L70.6241 296.537L83.3886 290.18C90.6264 286.575 99.3492 289.572 103.754 296.353C130.929 338.181 180.175 361.091 230.6 354.105C301.581 344.271 351.338 278.663 341.529 207.857C332.396 141.932 274.805 94.3828 209.624 96.0676C201.532 96.2768 194.118 90.767 193.007 82.749L189.477 62.4622L186.586 41.5931C185.475 33.5751 191.076 26.1184 199.153 25.5825C247.291 22.3883 294.438 36.4233 333.288 65.787C376.063 98.1179 403.666 145.147 411.02 198.23C418.373 251.304 404.596 304.075 372.22 346.808C339.854 389.549 292.762 417.139 239.633 424.5Z" fill="#354CDC"/>
</svg>
