<svg width="110" height="110" viewBox="0 0 110 110" fill="none" xmlns="http://www.w3.org/2000/svg">
<path d="M70.4212 38.4935L70.4262 38.5106L70.4318 38.5275C70.5777 38.9652 70.4765 39.453 70.1942 39.7823L70.173 39.8071L70.1535 39.8331C69.8411 40.2496 69.3765 40.4573 68.9035 40.4573H41.5743C41.1013 40.4573 40.6366 40.2496 40.3243 39.8331C40.0285 39.4388 39.9544 38.9929 40.0669 38.4586L44.3248 23.9815C44.5498 23.2572 45.1268 22.8145 45.8445 22.8145H64.6333C65.285 22.8145 65.9335 23.2764 66.1529 23.9815C66.1535 23.9833 66.154 23.985 66.1545 23.9868L70.4212 38.4935ZM48.2012 47.9173L48.2021 47.9215L51.6167 62.4332C51.7219 62.9134 51.6134 63.3535 51.3204 63.6954L51.2714 63.7524L51.2316 63.8162C51.0207 64.1536 50.6066 64.3703 50.1147 64.3703H22.7855C22.3125 64.3703 21.8478 64.1627 21.5354 63.7462C21.2397 63.3518 21.1656 62.9059 21.278 62.3717L25.5361 47.8944C25.7611 47.1702 26.338 46.7275 27.0557 46.7275H46.6985C47.4186 46.7275 48.0474 47.251 48.2012 47.9173ZM89.21 62.4065L89.215 62.4236L89.2207 62.4406C89.3665 62.8782 89.2653 63.3661 88.9831 63.6954L88.9619 63.7201L88.9423 63.7462C88.6299 64.1627 88.1653 64.3703 87.6923 64.3703H60.3631C59.8794 64.3703 59.3903 64.1514 59.0723 63.7804C58.7779 63.4369 58.6762 62.9183 58.7711 62.5387L58.7712 62.5387L58.7744 62.5252L62.1846 48.0318C62.4249 47.2211 63.092 46.7275 63.7793 46.7275H83.4221C84.0738 46.7275 84.7223 47.1894 84.9417 47.8945C84.9423 47.8963 84.9428 47.898 84.9434 47.8998L89.21 62.4065ZM33.6976 86.3195L33.7026 86.3367L33.7082 86.3536C33.8541 86.7913 33.7529 87.2791 33.4706 87.6084L33.4494 87.6331L33.4299 87.6592C33.1175 88.0757 32.6529 88.2834 32.1799 88.2834H4.85069C4.37768 88.2834 3.91304 88.0757 3.60067 87.6592C3.3049 87.2648 3.23082 86.819 3.34326 86.2847L7.59961 71.8128C7.60016 71.8111 7.60071 71.8093 7.60126 71.8075C7.82624 71.0833 8.40322 70.6405 9.12087 70.6405H27.9097C28.5614 70.6405 29.2098 71.1024 29.4293 71.8075C29.4299 71.8093 29.4304 71.8111 29.431 71.8128L33.6976 86.3195ZM66.99 71.8303L66.9909 71.8345L70.4043 86.3411C70.4047 86.3429 70.4051 86.3447 70.4055 86.3465C70.5107 86.8266 70.4022 87.2666 70.1092 87.6084L70.0603 87.6655L70.0204 87.7292C69.8096 88.0666 69.3955 88.2834 68.9035 88.2834H41.5743C41.1013 88.2834 40.6366 88.0757 40.3243 87.6592C40.0285 87.2648 39.9544 86.819 40.0669 86.2847L44.3232 71.8128C44.3238 71.8111 44.3243 71.8093 44.3248 71.8075C44.5498 71.0833 45.1268 70.6405 45.8445 70.6405H65.4873C66.2074 70.6405 66.8362 71.1641 66.99 71.8303ZM80.1254 71.9196L80.1276 71.9099L80.1297 71.9001C80.2811 71.1937 80.8755 70.7256 81.629 70.7256H101.272C101.923 70.7256 102.572 71.1883 102.792 71.8944C102.792 71.8962 102.793 71.8979 102.793 71.8996L107.06 86.4063L107.065 86.4234L107.07 86.4404C107.216 86.8777 107.115 87.3639 106.833 87.6935L106.804 87.7271L106.778 87.763C106.57 88.0542 106.131 88.2834 105.627 88.2834H78.2979C77.8142 88.2834 77.3251 88.0644 77.0071 87.6935C76.7127 87.35 76.611 86.8313 76.7059 86.4517L76.706 86.4517L76.7092 86.4382L80.1254 71.9196Z" fill="#EEF0FE" stroke="white" stroke-width="2"/>
</svg>
