<svg width="110" height="110" viewBox="0 0 110 110" fill="none" xmlns="http://www.w3.org/2000/svg">
<path d="M30.014 11.5217C28.884 11.6274 28.0505 12.6511 28.1547 13.7968C28.2589 14.9424 29.2687 15.7874 30.3987 15.6818H43.8623L8.408 51.6272C7.59056 52.4559 7.59056 53.7885 8.408 54.6172C9.22544 55.446 10.5397 55.446 11.3572 54.6172L46.8115 18.6718V32.322C46.8035 33.0695 47.1882 33.7682 47.8293 34.1501C48.4704 34.5239 49.2558 34.5239 49.8969 34.1501C50.538 33.7682 50.9227 33.0695 50.9147 32.322V12.5217C50.9147 11.9694 50.467 11.5217 49.9147 11.5217H30.3987C30.3345 11.5217 30.2704 11.5217 30.2063 11.5217C30.1422 11.5217 30.0781 11.5217 30.014 11.5217ZM75.4824 19.8418C74.3778 19.8418 73.4824 20.7373 73.4824 21.8418V98.9627C73.4824 100.067 74.3778 100.963 75.4824 100.963H100.205C101.309 100.963 102.205 100.067 102.205 98.9627V21.8418C102.205 20.7373 101.309 19.8418 100.205 19.8418H75.4824ZM42.6567 46.8821C41.5521 46.8821 40.6567 47.7776 40.6567 48.8821V98.9627C40.6567 100.067 41.5521 100.963 42.6567 100.963H67.3792C68.4837 100.963 69.3792 100.067 69.3792 98.9627V48.8821C69.3792 47.7776 68.4837 46.8821 67.3792 46.8821H42.6567ZM9.83098 69.7624C8.72642 69.7624 7.83098 70.6578 7.83098 71.7624V98.9627C7.83098 100.067 8.72642 100.963 9.83098 100.963H34.5535C35.658 100.963 36.5535 100.067 36.5535 98.9627V71.7624C36.5535 70.6578 35.658 69.7624 34.5535 69.7624H9.83098Z" fill="#EEF0FE"/>
</svg>
