<svg width="24" height="24" viewBox="0 0 24 24" fill="none" xmlns="http://www.w3.org/2000/svg">
<path d="M20.8846 11.3862C20.7238 11.1662 16.8924 6 11.9989 6C7.1055 6 3.27388 11.1662 3.11325 11.386C2.96095 11.5946 2.96095 11.8777 3.11325 12.0864C3.27388 12.3063 7.1055 17.4725 11.9989 17.4725C16.8924 17.4725 20.7238 12.3063 20.8846 12.0865C21.0371 11.8779 21.0371 11.5946 20.8846 11.3862ZM11.9989 16.2857C8.3944 16.2857 5.27248 12.8568 4.34832 11.7359C5.27128 10.6139 8.38666 7.18681 11.9989 7.18681C15.6033 7.18681 18.725 10.6151 19.6496 11.7367C18.7266 12.8586 15.6112 16.2857 11.9989 16.2857Z" fill="#152AA1"/>
<path d="M11.9993 8.38354C10.1506 8.38354 8.64648 9.88765 8.64648 11.7364C8.64648 13.5851 10.1506 15.0892 11.9993 15.0892C13.848 15.0892 15.3521 13.5851 15.3521 11.7364C15.3521 9.88765 13.848 8.38354 11.9993 8.38354ZM11.9993 13.9715C10.7668 13.9715 9.76411 12.9689 9.76411 11.7364C9.76411 10.5039 10.7668 9.50117 11.9993 9.50117C13.2318 9.50117 14.2345 10.5039 14.2345 11.7364C14.2345 12.9689 13.2318 13.9715 11.9993 13.9715Z" fill="#152AA1"/>
</svg>
