<svg width="110" height="110" viewBox="0 0 110 110" fill="none" xmlns="http://www.w3.org/2000/svg">
<g clip-path="url(#clip0)">
<path fill-rule="evenodd" clip-rule="evenodd" d="M5.3116 17.7344C2.56734 17.7344 0.342674 19.959 0.342658 22.7033L0.342285 86.6965C0.342269 89.4332 2.55522 91.6548 5.29195 91.6654L104.671 92.0509C107.423 92.0616 109.659 89.8338 109.659 87.082V22.7033C109.659 19.959 107.435 17.7344 104.69 17.7344L5.3116 17.7344ZM17.8477 31.4971V28.9133C17.8477 28.2272 18.4038 27.6711 19.0899 27.6711H20.5852C21.2713 27.6711 21.8275 28.2272 21.8275 28.9133V31.5014C23.5066 31.7769 24.9594 32.5471 26.0635 33.7518C27.3687 35.1817 28.1033 37.194 27.9808 38.9956C27.9423 39.5345 27.4939 39.9521 26.9535 39.9521H24.9577C24.3959 39.9521 23.9379 39.5017 23.9284 38.9401C23.9022 37.1276 23.1793 34.9645 19.8845 34.9645C17.0401 34.9645 15.7168 36.0806 15.7168 38.4746C15.7168 40.4751 17.5045 40.9856 20.666 41.7114L20.67 41.7123C24.1893 42.5211 28.568 43.5274 28.5658 48.753C28.5658 49.7587 28.2334 54.6728 21.8275 55.6152V57.0375C21.8275 57.7236 21.2713 58.2798 20.5852 58.2798H19.0856C18.3996 58.2798 17.8434 57.7236 17.8434 57.0375V55.5639C13.4423 54.8053 11.2384 52.159 11.105 47.489C11.0887 46.909 11.5544 46.43 12.1346 46.43H14.1322C14.71 46.43 15.1738 46.9071 15.1574 47.4847C15.1203 48.9343 15.4999 50.069 16.2848 50.8539C17.6141 52.1832 19.7351 52.199 19.8248 52.199C23.9045 52.199 24.5134 50.0575 24.5134 48.7829C24.5134 46.6577 22.7257 46.1519 19.5643 45.4436L19.5614 45.4429C16.0397 44.656 11.6602 43.6773 11.6602 38.2654C11.6602 37.6467 11.8418 32.3717 17.8477 31.4971ZM10.2801 67.3232L10.2801 70.7766C10.2801 71.4627 10.8362 72.0188 11.5223 72.0188H87.746C88.432 72.0188 88.9882 71.4627 88.9882 70.7766V67.3232C88.9882 66.6372 88.432 66.081 87.746 66.081H11.5223C10.8363 66.081 10.2801 66.6371 10.2801 67.3232ZM10.2801 81.3356V78.2549C10.2801 77.5688 10.8363 77.0127 11.5224 77.0127H62.2056C62.8916 77.0127 63.4478 77.5688 63.4478 78.2549L63.4478 81.3356C63.4478 82.0217 62.8916 82.5778 62.2055 82.5778H11.5224C10.8363 82.5778 10.2801 82.0217 10.2801 81.3356Z" fill="white"/>
</g>
<defs>
<clipPath id="clip0">
<rect width="109.317" height="109.317" fill="white" transform="translate(0.341797 0.341797)"/>
</clipPath>
</defs>
</svg>
