<svg width="120" height="120" viewBox="0 0 120 120" fill="none" xmlns="http://www.w3.org/2000/svg">
<path d="M82.0823 18.1792C88.1816 18.1792 93.1719 23.2003 93.1719 29.3372V107.444C93.1719 113.58 88.1816 118.602 82.0823 118.602H21.0899C14.9907 118.602 10.0004 113.58 10.0004 107.444V29.3372C10.0004 23.1724 14.963 18.1792 21.0899 18.1792H82.0823ZM65.448 40.4953H37.7242C34.6635 40.4953 32.1795 42.9947 32.1795 46.0743C32.1795 49.1539 34.6635 51.6533 37.7242 51.6533H65.448C68.5088 51.6533 70.9928 49.1539 70.9928 46.0743C70.9928 42.9947 68.5088 40.4953 65.448 40.4953ZM65.448 62.8114H37.7242C34.6635 62.8114 32.1795 65.3108 32.1795 68.3904C32.1795 71.47 34.6635 73.9694 37.7242 73.9694H65.448C68.5088 73.9694 70.9928 71.47 70.9928 68.3904C70.9928 65.3108 68.5088 62.8114 65.448 62.8114ZM65.448 85.1275H37.7242C34.6635 85.1275 32.1795 87.6269 32.1795 90.7065C32.1795 93.7861 34.6635 96.2855 37.7242 96.2855H65.448C68.5088 96.2855 70.9928 93.7861 70.9928 90.7065C70.9928 87.6269 68.5088 85.1275 65.448 85.1275Z" fill="#2841CF"/>
<path d="M98.0159 2C104.115 2 109.105 7.02112 109.105 13.158V85.6853C109.105 88.765 106.621 91.2644 103.561 91.2644C100.5 91.2644 98.0159 88.765 98.0159 85.6853V18.7371C98.0159 15.6574 95.5319 13.158 92.4712 13.158H37.0235C33.9628 13.158 31.4788 10.6586 31.4788 7.57902C31.4788 4.4994 33.9628 2 37.0235 2H98.0159Z" fill="#2841CF"/>
</svg>
