<svg width="16" height="16" viewBox="0 0 16 16" fill="none" xmlns="http://www.w3.org/2000/svg">
<path d="M9.65495 3.69896C9.55755 3.68876 9.45737 3.7052 9.36537 3.75C9.18243 3.83907 9.06641 4.02544 9.06641 4.22917V6.39896H2.13307C1.54374 6.39896 1.06641 6.87629 1.06641 7.46563V8.53229C1.06641 9.12163 1.54374 9.59896 2.13307 9.59896H9.06641V11.7708C9.06641 11.9751 9.18243 12.1609 9.36537 12.25C9.44003 12.2868 9.52027 12.3042 9.59974 12.3042C9.71654 12.3042 9.8324 12.2668 9.92787 12.1927L14.7654 8.42084C14.895 8.3195 14.9706 8.16584 14.9706 8.00104C14.9706 7.83624 14.895 7.68101 14.7654 7.58021L9.92787 3.80834C9.84733 3.74567 9.75235 3.70916 9.65495 3.69896Z" fill="white"/>
</svg>
