<svg width="120" height="120" viewBox="0 0 120 120" fill="none" xmlns="http://www.w3.org/2000/svg">
<path d="M55.5791 1.94113L17.468 18.9142C13.5317 20.6656 11 24.5719 11 28.8875V54.5299C11 97.2492 46.0568 117.196 60 120C73.9432 117.196 109 97.2492 109 54.5299V28.8875C109 24.5774 106.468 20.6656 102.532 18.9142L64.4209 1.94113C61.6061 0.686289 58.3939 0.686289 55.5791 1.94113ZM50.7063 80.2106L35.6252 65.0979C33.5019 62.9701 33.5019 59.5111 35.6252 57.3833C37.7486 55.2556 41.2003 55.2556 43.3237 57.3833L54.5556 68.6387L82.2406 40.8958C84.3639 38.768 87.8157 38.768 89.939 40.8958C92.0623 43.0236 92.0623 46.4826 89.939 48.6104L58.4048 80.2106C56.2814 82.3383 52.8297 82.3383 50.7063 80.2106Z" fill="#2841CF"/>
</svg>
