<svg width="32" height="32" viewBox="0 0 32 32" fill="none" xmlns="http://www.w3.org/2000/svg">
<path d="M30.7692 3C31.4486 3 32 3.5824 32 4.3V25.1C32 25.7058 31.599 26.1922 31.0673 26.3365L24.6764 28.286C24.0338 28.482 23.3846 28.0013 23.3846 27.3295V5.95897C23.3846 5.52058 23.6702 5.1333 24.0889 5.00368L30.2837 3.08633C30.4461 3.03173 30.5969 3 30.7692 3ZM11.0769 4.47665C11.0769 3.84051 11.6631 3.36606 12.2853 3.49859L20.1314 5.16985C20.593 5.26818 20.9231 5.67591 20.9231 6.14791V27.503C20.9231 28.1383 20.3383 28.6126 19.7167 28.4815L11.8705 26.8264C11.408 26.7288 11.0769 26.3207 11.0769 25.8479V4.47665ZM7.32377 3.71877C7.9663 3.52288 8.61538 4.00358 8.61538 4.67531V26.0406C8.61538 26.4804 8.32805 26.8686 7.90744 26.997L1.62259 28.9162C1.49829 28.9604 1.36984 29 1.23077 29C0.551384 29 0 28.4176 0 27.7V6.9C0 6.2825 0.418768 5.8339 0.961536 5.6584L7.32377 3.71877Z" fill="white"/>
</svg>
