<svg width="121" height="120" viewBox="0 0 121 120" fill="none" xmlns="http://www.w3.org/2000/svg">
<path d="M61.0425 117.791C65.2805 117.725 69.3191 115.98 72.2719 112.939C75.2247 109.899 76.8505 105.811 76.7925 101.573V69.5743H112.511C119.759 69.5743 123.428 60.8044 118.292 55.6686L73.4175 10.7955C66.4415 3.81975 55.1435 3.81975 48.1675 10.7955L3.29249 55.6686C-1.84351 60.8044 1.82572 69.5743 9.07372 69.5743H44.7925V101.573C44.7632 103.713 45.1637 105.838 45.9704 107.821C46.777 109.804 47.9734 111.605 49.4886 113.117C51.0039 114.63 52.8072 115.822 54.7918 116.625C56.7764 117.428 58.9019 117.824 61.0425 117.791Z" fill="#2841CF"/>
</svg>
