<svg width="352" height="352" viewBox="0 0 352 352" fill="none" xmlns="http://www.w3.org/2000/svg">
<path d="M352 176C352 273.202 273.202 352 176 352C78.7979 352 0 273.202 0 176C0 81.4801 74.5091 4.36275 167.997 0.178732C172.411 -0.0188103 176 3.58172 176 8V44.1482C176 48.5664 172.408 52.1213 167.998 52.4025C103.326 56.5264 52.1481 110.287 52.1481 176C52.1481 244.401 107.599 299.852 176 299.852C244.401 299.852 299.852 244.401 299.852 176C299.852 162.687 297.751 149.865 293.864 137.846C292.51 133.662 294.466 129.04 298.542 127.392L332.083 113.828C336.192 112.166 340.888 114.157 342.34 118.346C348.599 136.409 352 155.807 352 176Z" fill="#EEF0FE"/>
<path d="M334.509 176C334.509 263.542 263.542 334.509 176 334.509C88.4578 334.509 17.4907 263.542 17.4907 176C17.4907 91.1395 84.1756 21.8545 168.002 17.6885C172.414 17.4692 176 21.072 176 25.4902V56.456C176 60.8742 172.406 64.4261 167.999 64.7385C110.13 68.8401 64.4564 117.086 64.4564 176C64.4564 237.603 114.396 287.543 176 287.543C237.604 287.543 287.544 237.603 287.544 176C287.544 164.287 285.738 152.996 282.391 142.39C281.067 138.196 283.02 133.574 287.096 131.926L315.831 120.306C319.941 118.644 324.638 120.634 326.069 124.83C331.541 140.883 334.509 158.095 334.509 176Z" fill="#EEF0FE"/>
</svg>
