<svg width="382" height="382" viewBox="0 0 382 382" fill="none" xmlns="http://www.w3.org/2000/svg">
<path d="M0 191C0 296.486 85.5136 382 191 382C296.486 382 382 296.486 382 191C382 88.1958 300.78 4.36167 199.007 0.164788C194.592 -0.0172567 191 3.58172 191 8V48.5926C191 53.0109 194.59 56.5679 199.001 56.8268C269.507 60.966 325.407 119.455 325.407 191C325.407 265.231 265.231 325.407 191 325.407C116.769 325.407 56.5926 265.231 56.5926 191C56.5926 176.314 58.9478 162.179 63.3012 148.951C64.6758 144.774 62.7184 140.151 58.642 138.503L20.9797 123.272C16.8701 121.611 12.1759 123.602 10.7092 127.785C3.77216 147.571 0 168.845 0 191Z" fill="#1C36CA"/>
<path d="M14.6923 191C14.6923 288.372 93.6279 367.308 191 367.308C288.372 367.308 367.308 288.372 367.308 191C367.308 96.3103 292.661 19.0551 199.003 14.8708C194.589 14.6736 191 18.2741 191 22.6924V58.9317C191 63.35 194.592 66.9049 199.002 67.1856C263.794 71.3098 315.068 125.167 315.068 191C315.068 259.521 259.521 315.068 191 315.068C122.479 315.068 66.9316 259.521 66.9316 191C66.9316 177.659 69.0373 164.81 72.9345 152.766C74.2883 148.583 72.3331 143.96 68.2567 142.312L34.6313 128.714C30.5217 127.052 25.826 129.044 24.3741 133.232C18.1005 151.33 14.6923 170.767 14.6923 191Z" fill="#1C36CA"/>
</svg>
