<svg width="120" height="120" viewBox="0 0 120 120" fill="none" xmlns="http://www.w3.org/2000/svg">
<path d="M109.091 0C106.198 0 103.423 1.14935 101.377 3.1952C99.3312 5.24105 98.1818 8.01582 98.1818 10.9091C98.1822 11.5304 98.2357 12.1506 98.3416 12.7628L80.1136 27.9545C78.9133 27.509 77.644 27.2782 76.3636 27.2727C74.2266 27.2749 72.1373 27.9046 70.3551 29.0838L54.5135 21.1577C54.3454 18.3859 53.1266 15.7826 51.1055 13.8783C49.0844 11.974 46.4132 10.9121 43.6364 10.9091C40.7431 10.9091 37.9683 12.0584 35.9225 14.1043C33.8766 16.1501 32.7273 18.9249 32.7273 21.8182C32.7304 22.0528 32.741 22.2873 32.7592 22.5213L15.7351 33.8672C14.2353 33.1218 12.5839 32.7317 10.9091 32.7273C8.01582 32.7273 5.24105 33.8766 3.1952 35.9225C1.14935 37.9683 0 40.7431 0 43.6364C0 46.5296 1.14935 49.3044 3.1952 51.3503C5.24105 53.3961 8.01582 54.5455 10.9091 54.5455C13.8024 54.5455 16.5771 53.3961 18.623 51.3503C20.6688 49.3044 21.8182 46.5296 21.8182 43.6364C21.8149 43.4053 21.8042 43.1743 21.7862 42.9439L38.8104 31.5874C40.3102 32.3328 41.9615 32.7228 43.6364 32.7273C45.7734 32.7251 47.8627 32.0954 49.6449 30.9162L65.4865 38.8423C65.6546 41.6141 66.8734 44.2174 68.8945 46.1217C70.9156 48.026 73.5868 49.0879 76.3636 49.0909C79.2569 49.0909 82.0317 47.9416 84.0775 45.8957C86.1234 43.8499 87.2727 41.0751 87.2727 38.1818C87.2723 37.5605 87.2189 36.9403 87.1129 36.3281L105.341 21.1364C106.541 21.5819 107.811 21.8127 109.091 21.8182C111.984 21.8182 114.759 20.6688 116.805 18.623C118.851 16.5771 120 13.8024 120 10.9091C120 8.01582 118.851 5.24105 116.805 3.1952C114.759 1.14935 111.984 0 109.091 0ZM103.636 43.6364C100.625 43.6364 98.1818 46.08 98.1818 49.0909V114C98.1818 117.314 100.868 120 104.182 120H114C117.314 120 120 117.314 120 114V49.0909C120 46.08 117.556 43.6364 114.545 43.6364H103.636ZM38.1818 54.5455C35.1709 54.5455 32.7273 56.9891 32.7273 60V114C32.7273 117.314 35.4136 120 38.7273 120H48.5455C51.8592 120 54.5455 117.314 54.5455 114V60C54.5455 56.9891 52.1018 54.5455 49.0909 54.5455H38.1818ZM70.9091 65.4545C67.8982 65.4545 65.4545 67.8982 65.4545 70.9091V114C65.4545 117.314 68.1408 120 71.4545 120H81.2727C84.5864 120 87.2727 117.314 87.2727 114V70.9091C87.2727 67.8982 84.8291 65.4545 81.8182 65.4545H70.9091ZM5.45455 76.3636C2.44364 76.3636 0 78.8073 0 81.8182V114C0 117.314 2.68629 120 6 120H15.8182C19.1319 120 21.8182 117.314 21.8182 114V81.8182C21.8182 78.8073 19.3745 76.3636 16.3636 76.3636H5.45455Z" fill="#2841CF"/>
</svg>
