<svg width="22" height="14" viewBox="0 0 22 14" fill="none" xmlns="http://www.w3.org/2000/svg">
<path d="M13.4829 0.548443C13.3368 0.533143 13.1865 0.557805 13.0485 0.625005C12.7741 0.758605 12.6001 1.03816 12.6001 1.34376V4.59844H2.2001C1.3161 4.59844 0.600098 5.31444 0.600098 6.19844V7.79844C0.600098 8.68244 1.3161 9.39844 2.2001 9.39844H12.6001V12.6563C12.6001 12.9627 12.7741 13.2414 13.0485 13.375C13.1605 13.4302 13.2809 13.4563 13.4001 13.4563C13.5753 13.4563 13.7491 13.4003 13.8923 13.2891L21.1485 7.63125C21.3429 7.47925 21.4563 7.24877 21.4563 7.00157C21.4563 6.75437 21.3429 6.52152 21.1485 6.37032L13.8923 0.712505C13.7715 0.618505 13.629 0.563743 13.4829 0.548443Z" fill="white"/>
</svg>
