<svg width="56" height="56" viewBox="0 0 56 56" fill="none" xmlns="http://www.w3.org/2000/svg">
<g opacity="0.2">
<path d="M56 28C56 43.464 43.464 56 28 56C12.536 56 0 43.464 0 28C0 13.2086 11.4693 1.09598 25.9997 0.0703479C27.1015 -0.00742459 28 0.895431 28 2V6.2963C28 7.40087 27.1021 8.28563 26.003 8.39624C16.0589 9.39713 8.2963 17.792 8.2963 28C8.2963 38.8821 17.1179 47.7037 28 47.7037C38.8821 47.7037 47.7037 38.8821 47.7037 28C47.7037 26.1353 47.4447 24.331 46.9606 22.6213C46.6611 21.5636 47.1459 20.4081 48.165 19.996L52.154 18.3829C53.1814 17.9675 54.3581 18.4649 54.6933 19.5212C55.5421 22.1958 56 25.0444 56 28Z" fill="white"/>
<path d="M28.0001 19.0352C27.1173 19.0352 26.3715 19.5266 25.2656 20.0955C24.1597 20.6644 22.6789 21.3511 20.3627 21.8596L20.0801 21.9215V22.2112C20.0801 27.7265 22.0086 31.4092 23.9452 33.6946C25.8817 35.98 27.8489 36.8917 27.8489 36.8917L28.0078 36.9648L28.1632 36.8854C28.1632 36.8854 35.9201 32.8876 35.9201 22.2112V21.9215L35.6374 21.8596C33.3213 21.3511 31.8404 20.6644 30.7345 20.0955C29.6286 19.5266 28.8828 19.0352 28.0001 19.0352ZM28.0001 19.7552C28.5926 19.7552 29.2759 20.1549 30.4055 20.736C31.4777 21.2876 32.9902 21.9564 35.1769 22.472C35.0493 32.2394 28.4601 35.8972 27.9945 36.1429C27.7696 36.0336 26.2113 35.2546 24.495 33.2291C22.6843 31.0923 20.8866 27.6609 20.8226 22.472C23.0097 21.9564 24.5224 21.2877 25.5947 20.736C26.7243 20.1549 27.4075 19.7552 28.0001 19.7552Z" fill="white"/>
<path d="M28.0001 19.7552C28.5926 19.7552 29.2759 20.1549 30.4055 20.736C31.4777 21.2876 32.9902 21.9564 35.1769 22.472C35.0493 32.2394 28.4601 35.8972 27.9945 36.1429C27.7696 36.0336 26.2113 35.2546 24.495 33.2291C22.6843 31.0923 20.8866 27.6609 20.8226 22.472C23.0097 21.9564 24.5224 21.2877 25.5947 20.736C26.7243 20.1549 27.4075 19.7552 28.0001 19.7552Z" fill="white"/>
</g>
</svg>
