<svg width="48" height="48" viewBox="0 0 48 48" fill="none" xmlns="http://www.w3.org/2000/svg">
<path d="M26.1817 0C28.5926 0 30.5453 1.95273 30.5453 4.36364V43.6364C30.5453 46.0473 28.5926 48 26.1817 48H4.36362C1.95272 48 3.8147e-06 46.0473 3.8147e-06 43.6364V4.36364C3.8147e-06 1.95273 1.95272 0 4.36362 0H26.1817ZM37.1248 2.15199C37.7027 2.16102 38.2535 2.39897 38.6561 2.81361C39.0588 3.22825 39.2805 3.78571 39.2725 4.36364V43.6364C39.2766 43.9255 39.2232 44.2125 39.1154 44.4808C39.0076 44.7491 38.8475 44.9933 38.6445 45.1992C38.4415 45.4051 38.1996 45.5686 37.9329 45.6802C37.6661 45.7918 37.3799 45.8493 37.0907 45.8493C36.8016 45.8493 36.5153 45.7918 36.2486 45.6802C35.9819 45.5686 35.7399 45.4051 35.5369 45.1992C35.3339 44.9933 35.1739 44.7491 35.0661 44.4808C34.9583 44.2125 34.9048 43.9255 34.9089 43.6364V4.36364C34.9049 4.07173 34.9596 3.78199 35.0696 3.51158C35.1795 3.24116 35.3427 2.99557 35.5493 2.78934C35.7559 2.58311 36.0018 2.42044 36.2725 2.31097C36.5431 2.20149 36.8329 2.14743 37.1248 2.15199ZM45.8521 4.33381C46.43 4.34284 46.9807 4.58079 47.3833 4.99543C47.786 5.41007 48.0077 5.96753 47.9998 6.54545V41.4545C48.0039 41.7437 47.9505 42.0307 47.8426 42.299C47.7348 42.5673 47.5748 42.8115 47.3718 43.0174C47.1688 43.2233 46.9269 43.3868 46.6601 43.4984C46.3934 43.61 46.1071 43.6674 45.818 43.6674C45.5288 43.6674 45.2426 43.61 44.9758 43.4984C44.7091 43.3868 44.4672 43.2233 44.2642 43.0174C44.0612 42.8115 43.9011 42.5673 43.7933 42.299C43.6855 42.0307 43.6321 41.7437 43.6362 41.4545V6.54545C43.6322 6.25355 43.6868 5.96381 43.7968 5.6934C43.9068 5.42298 44.0699 5.17739 44.2765 4.97116C44.4832 4.76493 44.7291 4.60226 44.9997 4.49278C45.2703 4.38331 45.5602 4.32925 45.8521 4.33381Z" fill="white"/>
</svg>
