<svg width="110" height="110" viewBox="0 0 110 110" fill="none" xmlns="http://www.w3.org/2000/svg">
<path fill-rule="evenodd" clip-rule="evenodd" d="M14.0061 9.74736C14.0061 5.63095 17.3431 2.29395 21.4595 2.29395H88.5403C92.6567 2.29395 95.9937 5.63095 95.9937 9.74736V100.253C95.9937 104.37 92.6567 107.707 88.5403 107.707H21.4595C17.3431 107.707 14.0061 104.37 14.0061 100.253V9.74736ZM76.0675 35.2309C76.8919 34.3674 78.0099 33.8822 79.1757 33.8822C80.3415 33.8822 81.4595 34.3674 82.2839 35.2309C83.1082 36.0945 83.5713 37.2657 83.5713 38.4869C83.5713 39.7081 83.1082 40.8794 82.2839 41.7429C81.4595 42.6065 80.3415 43.0916 79.1757 43.0916C78.9557 43.0893 78.7362 43.0698 78.5189 43.0331L65.6884 69.8408C65.8869 70.374 65.9888 70.9413 65.9889 71.5136C65.9889 72.7348 65.5258 73.906 64.7015 74.7696C63.8771 75.6331 62.7591 76.1182 61.5933 76.1182C60.4275 76.1182 59.3095 75.6331 58.4851 74.7696C57.6608 73.906 57.1977 72.7348 57.1977 71.5136C57.1992 71.0213 57.276 70.5324 57.4252 70.0656L44.8951 45.295C44.6043 45.3592 44.3081 45.3923 44.0109 45.3939C43.628 45.3919 43.247 45.3375 42.8776 45.232L35.0694 63.4149C35.169 63.8035 35.2195 64.2042 35.2197 64.6065C35.2197 65.8278 34.7566 66.999 33.9322 67.8626C33.1079 68.7261 31.9899 69.2112 30.8241 69.2112C29.6583 69.2112 28.5402 68.7261 27.7159 67.8626C26.8916 66.999 26.4285 65.8278 26.4285 64.6065C26.4285 63.3853 26.8916 62.2141 27.7159 61.3506C28.5402 60.487 29.6583 60.0019 30.8241 60.0019C31.2069 60.0039 31.5879 60.0583 31.9573 60.1638L39.7655 41.9809C39.6659 41.5923 39.6154 41.1916 39.6153 40.7892C39.6153 39.568 40.0784 38.3968 40.9027 37.5332C41.7271 36.6697 42.8451 36.1846 44.0109 36.1846C45.1767 36.1846 46.2947 36.6697 47.119 37.5332C47.9434 38.3968 48.4065 39.568 48.4065 40.7892C48.405 41.2815 48.3282 41.7704 48.179 42.2372L60.709 67.0078C60.9998 66.9436 61.2961 66.9105 61.5933 66.9089C61.8133 66.9111 62.0328 66.9307 62.2501 66.9673L75.0806 40.1597C74.8821 39.6265 74.7802 39.0592 74.7801 38.4869C74.7801 37.2657 75.2432 36.0945 76.0675 35.2309Z" fill="#344CD2"/>
</svg>
