<svg width="56" height="56" viewBox="0 0 56 56" fill="none" xmlns="http://www.w3.org/2000/svg">
<g opacity="0.2">
<path d="M56 28C56 43.464 43.464 56 28 56C12.536 56 0 43.464 0 28C0 13.2086 11.4693 1.09598 25.9997 0.0703479C27.1015 -0.00742459 28 0.895431 28 2V6.2963C28 7.40087 27.1021 8.28563 26.003 8.39624C16.0589 9.39713 8.2963 17.792 8.2963 28C8.2963 38.8821 17.1179 47.7037 28 47.7037C38.8821 47.7037 47.7037 38.8821 47.7037 28C47.7037 26.1353 47.4447 24.331 46.9606 22.6213C46.6611 21.5636 47.1459 20.4081 48.165 19.996L52.154 18.3829C53.1814 17.9675 54.3581 18.4649 54.6933 19.5212C55.5421 22.1958 56 25.0444 56 28Z" fill="white"/>
<path d="M28 19C26.0986 19 24.1093 19.5762 22.5761 20.7888C21.0429 22.0015 20 23.8605 20 26.2857C20 26.7975 20.0688 27.4312 20.1603 28.065C20.1404 28.1597 20.1319 28.257 20.1427 28.3562L20.5462 32.05C20.5959 32.5039 20.9714 32.8794 21.4796 32.9833L22.5632 33.2044C22.8065 33.5606 23.2665 33.7847 23.7711 33.7428L24.3601 33.6936C25.0581 33.6353 25.5702 33.0948 25.5034 32.4858L24.9171 27.1128C24.8507 26.5039 24.2307 26.057 23.5326 26.115L22.9443 26.1642C22.4402 26.2061 22.0364 26.5014 21.8743 26.8911L21.4423 27.0595C21.4128 26.7732 21.3913 26.5032 21.3913 26.2857C21.3913 24.1573 22.2614 22.6771 23.5109 21.6889C24.7603 20.7006 26.4232 20.2143 28 20.2143C29.5768 20.2143 31.2397 20.7006 32.4891 21.6889C33.7386 22.6771 34.6087 24.1573 34.6087 26.2857C34.6087 26.5032 34.5872 26.7732 34.5577 27.0595L34.1257 26.8911C33.9636 26.5014 33.5598 26.2061 33.0557 26.1642L32.4674 26.115C31.7693 26.057 31.1493 26.5039 31.0829 27.1128L30.4966 32.4858C30.4298 33.0948 30.9419 33.6353 31.6399 33.6936L32.2289 33.7428C32.7335 33.7847 33.1935 33.5606 33.4368 33.2044L34.5204 32.9833C35.0286 32.8794 35.4044 32.5041 35.4538 32.0506L35.8573 28.3568C35.8681 28.2575 35.8596 28.1598 35.8397 28.065C35.9312 27.4312 36 26.7975 36 26.2857C36 23.8605 34.9571 22.0015 33.4239 20.7888C31.8907 19.5762 29.9014 19 28 19ZM33.5808 33.9165C33.5026 34.1898 33.415 34.3693 33.3016 34.4952C33.1883 34.6211 33.0411 34.7188 32.7391 34.8118C32.1903 34.9808 31.1181 35.0676 29.3784 35.0828C29.3475 34.9158 29.1891 34.7857 28.9891 34.7857H27.0109C26.789 34.7857 26.6087 34.943 26.6087 35.1367V35.649C26.6087 35.8427 26.789 36 27.0109 36H28.9891C28.9915 36 28.9935 35.9989 28.9959 35.9988C31.0136 35.9961 32.232 35.9337 33.087 35.6703C33.5241 35.5357 33.877 35.3298 34.1223 35.0573C34.3676 34.7848 34.4974 34.471 34.5931 34.1371L33.5808 33.9165Z" fill="white"/>
</g>
</svg>
