<svg width="405" height="412" viewBox="0 0 405 412" fill="none" xmlns="http://www.w3.org/2000/svg">
<path d="M199.051 412C152.619 412 107.079 396.089 70.8208 367.2C37.2713 340.478 12.6887 303.529 0.989037 262.505C-0.222724 258.256 2.42897 253.925 6.72281 252.883L82.7836 234.427C87.0765 233.385 91.3733 236.032 92.7278 240.236C99.4296 261.041 112.31 279.733 129.558 293.479C149.2 309.119 173.881 317.734 199.051 317.734C260.605 317.734 310.685 267.655 310.685 206.104C310.685 147.242 264.886 98.8722 207.052 94.757C202.645 94.4434 199.051 90.8915 199.051 86.4733V8.20764C199.051 3.78937 202.646 0.19162 207.061 0.361328C316.899 4.58316 404.954 95.2534 404.954 206.104C404.954 319.636 312.587 412 199.051 412Z" fill="#354CDC"/>
</svg>
