<svg width="110" height="110" viewBox="0 0 110 110" fill="none" xmlns="http://www.w3.org/2000/svg">
<path fill-rule="evenodd" clip-rule="evenodd" d="M14.0068 9.74736C14.0068 5.63095 17.3438 2.29395 21.4602 2.29395H88.541C92.6574 2.29395 95.9944 5.63095 95.9944 9.74736V100.253C95.9944 104.37 92.6574 107.707 88.541 107.707H21.4603C17.3438 107.707 14.0068 104.37 14.0068 100.253V9.74736ZM76.0683 35.2309C76.8926 34.3674 78.0107 33.8822 79.1764 33.8822C80.3422 33.8822 81.4603 34.3674 82.2846 35.2309C83.1089 36.0945 83.572 37.2657 83.572 38.4869C83.572 39.7081 83.1089 40.8794 82.2846 41.7429C81.4603 42.6065 80.3422 43.0916 79.1764 43.0916C78.9564 43.0893 78.7369 43.0698 78.5197 43.0331L65.6891 69.8408C65.8877 70.374 65.9896 70.9413 65.9896 71.5136C65.9896 72.7348 65.5265 73.906 64.7022 74.7696C63.8778 75.6331 62.7598 76.1182 61.594 76.1182C60.4282 76.1182 59.3102 75.6331 58.4859 74.7696C57.6615 73.906 57.1984 72.7348 57.1984 71.5136C57.1999 71.0213 57.2767 70.5324 57.4259 70.0656L44.8959 45.295C44.6051 45.3592 44.3088 45.3923 44.0116 45.3939C43.6287 45.3919 43.2478 45.3375 42.8784 45.232L35.0702 63.4149C35.1697 63.8035 35.2202 64.2042 35.2204 64.6065C35.2204 65.8278 34.7573 66.999 33.933 67.8626C33.1086 68.7261 31.9906 69.2112 30.8248 69.2112C29.659 69.2112 28.541 68.7261 27.7166 67.8626C26.8923 66.999 26.4292 65.8278 26.4292 64.6065C26.4292 63.3853 26.8923 62.2141 27.7166 61.3506C28.541 60.487 29.659 60.0019 30.8248 60.0019C31.2077 60.0039 31.5886 60.0583 31.958 60.1638L39.7662 41.9809C39.6667 41.5923 39.6162 41.1916 39.616 40.7892C39.616 39.568 40.0791 38.3968 40.9035 37.5332C41.7278 36.6697 42.8458 36.1846 44.0116 36.1846C45.1774 36.1846 46.2954 36.6697 47.1198 37.5332C47.9441 38.3968 48.4072 39.568 48.4072 40.7892C48.4058 41.2815 48.3289 41.7704 48.1797 42.2372L60.7098 67.0078C61.0006 66.9436 61.2968 66.9105 61.594 66.9089C61.814 66.9111 62.0336 66.9307 62.2508 66.9673L75.0813 40.1597C74.8828 39.6265 74.7809 39.0592 74.7808 38.4869C74.7808 37.2657 75.2439 36.0945 76.0683 35.2309Z" fill="white"/>
</svg>
