<svg width="422" height="428" viewBox="0 0 422 428" fill="none" xmlns="http://www.w3.org/2000/svg">
<path d="M206.982 428C158.654 428 111.255 411.464 73.5162 381.437C38.5155 353.599 12.8913 315.081 0.748333 272.322C-0.459276 268.07 2.19329 263.737 6.48944 262.696L86.2892 243.36C90.5805 242.32 94.8758 244.965 96.2195 249.171C103.167 270.917 116.615 290.46 134.652 304.815C155.095 321.07 180.784 330.024 206.982 330.024C271.049 330.024 323.174 277.974 323.174 214C323.174 152.711 275.333 102.366 214.984 98.248C210.576 97.9472 206.982 94.3942 206.982 89.9759V8C206.982 3.58173 210.578 -0.0153503 214.993 0.147461C329.468 4.36887 421.291 98.6773 421.291 214C421.291 332.001 325.153 428 206.982 428Z" fill="#354CDC"/>
</svg>
