<svg width="56" height="56" viewBox="0 0 56 56" fill="none" xmlns="http://www.w3.org/2000/svg">
<g opacity="0.2">
<path d="M56 28C56 43.464 43.464 56 28 56C12.536 56 0 43.464 0 28C0 13.2086 11.4693 1.09598 25.9997 0.0703479C27.1015 -0.00742459 28 0.895431 28 2V6.2963C28 7.40087 27.1021 8.28563 26.003 8.39624C16.0589 9.39713 8.2963 17.792 8.2963 28C8.2963 38.8821 17.1179 47.7037 28 47.7037C38.8821 47.7037 47.7037 38.8821 47.7037 28C47.7037 26.1353 47.4447 24.331 46.9606 22.6213C46.6611 21.5636 47.1459 20.4081 48.165 19.996L52.154 18.3829C53.1814 17.9675 54.3581 18.4649 54.6933 19.5212C55.5421 22.1958 56 25.0444 56 28Z" fill="white"/>
<path d="M28.0063 36.6685C28.642 36.6586 29.2478 36.3969 29.6907 35.9408C30.1337 35.4847 30.3775 34.8715 30.3688 34.2358V29.436H35.7266C36.8138 29.436 37.3642 28.1205 36.5938 27.3502L29.8626 20.6192C28.8162 19.5728 27.1215 19.5728 26.0751 20.6192L19.3438 27.3502C18.5734 28.1205 19.1238 29.436 20.211 29.436H25.5688V34.2358C25.5644 34.5569 25.6245 34.8756 25.7455 35.173C25.8665 35.4705 26.046 35.7406 26.2732 35.9675C26.5005 36.1943 26.771 36.3732 27.0687 36.4937C27.3664 36.6141 27.6852 36.6735 28.0063 36.6685Z" fill="white"/>
</g>
</svg>
