<svg width="120" height="120" viewBox="0 0 120 120" fill="none" xmlns="http://www.w3.org/2000/svg">
<g clip-path="url(#clip0)">
<path d="M2.6087 3C1.91685 3.00007 1.25336 3.27306 0.764146 3.75894C0.274935 4.24481 6.91744e-05 4.90378 0 5.59091V15.9545C6.91744e-05 16.6417 0.274935 17.3006 0.764146 17.7865C1.25336 18.2724 1.91685 18.5454 2.6087 18.5455H5.21739V93.6818C5.21739 95.112 6.38348 96.2727 7.82609 96.2727H57.3913V101.93C54.362 103.004 52.1739 105.855 52.1739 109.227C52.1739 113.513 55.6852 117 60 117C64.3148 117 67.8261 113.513 67.8261 109.227C67.8261 105.855 65.638 103.004 62.6087 101.93V96.2727H112.174C113.617 96.2727 114.783 95.112 114.783 93.6818V18.5455H117.391C118.083 18.5454 118.747 18.2724 119.236 17.7865C119.725 17.3006 120 16.6417 120 15.9545V5.59091C120 4.90378 119.725 4.24481 119.236 3.75894C118.747 3.27306 118.083 3.00007 117.391 3H2.6087ZM5.21739 8.18182H114.783V13.3636H112.174H7.82609H5.21739V8.18182ZM93.913 31.5C96.7957 31.5 99.1304 33.8189 99.1304 36.6818C99.1304 39.5448 96.7957 41.8636 93.913 41.8636C93.613 41.8636 93.321 41.8268 93.0367 41.7776L72.7072 66.0016C72.9133 66.556 73.0435 67.1457 73.0435 67.7727C73.0435 70.6357 70.7087 72.9545 67.8261 72.9545C64.9435 72.9545 62.6087 70.6357 62.6087 67.7727C62.6087 67.2053 62.7245 66.6739 62.894 66.1635L48.0112 49.5352C47.6695 49.6025 47.3165 49.6364 46.9565 49.6364C46.4922 49.6364 46.052 49.5555 45.6216 49.4441L31.1107 63.856C31.2255 64.2809 31.3043 64.7206 31.3043 65.1818C31.3043 68.0448 28.9696 70.3636 26.087 70.3636C23.2043 70.3636 20.8696 68.0448 20.8696 65.1818C20.8696 62.3189 23.2043 60 26.087 60C26.5513 60 26.9914 60.0809 27.4219 60.1923L41.9327 45.7804C41.818 45.3555 41.7391 44.9157 41.7391 44.4545C41.7391 41.5916 44.0739 39.2727 46.9565 39.2727C49.8391 39.2727 52.1739 41.5916 52.1739 44.4545C52.1739 45.022 52.0582 45.5533 51.8886 46.0637L66.7714 62.6921C67.1131 62.6248 67.4661 62.5909 67.8261 62.5909C68.1261 62.5909 68.4206 62.6277 68.7075 62.6769L89.0319 38.4529C88.8258 37.8985 88.6957 37.3062 88.6957 36.6818C88.6957 33.8189 91.0304 31.5 93.913 31.5Z" fill="#2841CF"/>
<path d="M5.21739 8.18182H114.783V13.3636H112.174H7.82609H5.21739V8.18182Z" fill="#2841CF"/>
</g>
<defs>
<clipPath id="clip0">
<rect width="120" height="120" fill="white"/>
</clipPath>
</defs>
</svg>
