<svg width="48" height="48" viewBox="0 0 48 48" fill="none" xmlns="http://www.w3.org/2000/svg">
<g clip-path="url(#clip0)">
<path d="M24 0C37.2552 0 48 10.7448 48 24C48 37.2552 37.2552 48 24 48C10.7448 48 0 37.2552 0 24C0 10.7448 10.7448 0 24 0ZM14.4 26.4L27.8064 26.4L24 30.2064C23.064 31.1424 23.064 32.664 24 33.6C24.936 34.536 26.4576 34.536 27.3936 33.6L35.2968 25.6968C36.2328 24.7608 36.2328 23.2392 35.2968 22.3032L27.3936 14.4C26.4576 13.464 24.936 13.464 24 14.4C23.064 15.336 23.064 16.8576 24 17.7936L27.8064 21.6L14.4 21.6C13.0752 21.6 12 22.6752 12 24C12 25.3248 13.0752 26.4 14.4 26.4Z" fill="white"/>
</g>
<defs>
<clipPath id="clip0">
<rect width="48" height="48" fill="white" transform="matrix(-1 0 0 1 48 0)"/>
</clipPath>
</defs>
</svg>
