<svg width="56" height="56" viewBox="0 0 56 56" fill="none" xmlns="http://www.w3.org/2000/svg">
<g opacity="0.4">
<path d="M56 28C56 43.464 43.464 56 28 56C12.536 56 0 43.464 0 28C0 13.2086 11.4693 1.09598 25.9997 0.0703479C27.1015 -0.00742459 28 0.895431 28 2V6.2963C28 7.40087 27.1021 8.28563 26.003 8.39624C16.0589 9.39713 8.2963 17.792 8.2963 28C8.2963 38.8821 17.1179 47.7037 28 47.7037C38.8821 47.7037 47.7037 38.8821 47.7037 28C47.7037 26.1353 47.4447 24.331 46.9606 22.6213C46.6611 21.5636 47.1459 20.4081 48.165 19.996L52.154 18.3829C53.1814 17.9675 54.3581 18.4649 54.6933 19.5212C55.5421 22.1958 56 25.0444 56 28Z" fill="white"/>
<path d="M35.5 19C36.328 19 37 19.672 37 20.5V35.5C37 36.328 36.328 37 35.5 37C34.672 37 34 36.328 34 35.5V20.5C34 19.672 34.672 19 35.5 19ZM30.5 27C31.328 27 32 27.672 32 28.5V35.5C32 36.328 31.328 37 30.5 37C29.672 37 29 36.328 29 35.5V28.5C29 27.672 29.672 27 30.5 27ZM25.5 31C26.328 31 27 31.672 27 32.5V35.5C27 36.328 26.328 37 25.5 37C24.672 37 24 36.328 24 35.5V32.5C24 31.672 24.672 31 25.5 31ZM20.5 33C21.328 33 22 33.672 22 34.5V35.5C22 36.328 21.328 37 20.5 37C19.672 37 19 36.328 19 35.5V34.5C19 33.672 19.672 33 20.5 33Z" fill="white"/>
<path d="M19.9995 29.5859C19.7435 29.5859 19.4875 29.488 19.2925 29.293C18.9025 28.903 18.9025 28.2689 19.2925 27.8789L23.8159 23.3555L22.8257 22.3652C22.5977 22.1362 22.5279 21.7931 22.6519 21.4941C22.6929 21.3951 22.7527 21.3074 22.8257 21.2344C22.9727 21.0874 23.1751 21 23.3921 21H26.7847C27.2267 21 27.5855 21.3588 27.5855 21.8008V25.1934C27.5855 25.5174 27.3913 25.8086 27.0913 25.9336C26.7923 26.0576 26.4492 25.9878 26.2202 25.7598L25.23 24.7695L20.7066 29.293C20.5116 29.488 20.2555 29.5859 19.9995 29.5859Z" fill="white"/>
</g>
</svg>
