<svg width="56" height="56" viewBox="0 0 56 56" fill="none" xmlns="http://www.w3.org/2000/svg">
<g opacity="0.2">
<path d="M56 28C56 43.464 43.464 56 28 56C12.536 56 0 43.464 0 28C0 13.2086 11.4693 1.09598 25.9997 0.0703479C27.1015 -0.00742459 28 0.895431 28 2V6.2963C28 7.40087 27.1021 8.28563 26.003 8.39624C16.0589 9.39713 8.2963 17.792 8.2963 28C8.2963 38.8821 17.1179 47.7037 28 47.7037C38.8821 47.7037 47.7037 38.8821 47.7037 28C47.7037 26.1353 47.4447 24.331 46.9606 22.6213C46.6611 21.5636 47.1459 20.4081 48.165 19.996L52.154 18.3829C53.1814 17.9675 54.3581 18.4649 54.6933 19.5212C55.5421 22.1958 56 25.0444 56 28Z" fill="white"/>
<path d="M19.5625 25.0469C19.3234 25.0469 19.1406 25.2297 19.1406 25.4688V36.4375C19.1406 36.6766 19.3234 36.8594 19.5625 36.8594H36.4375C36.6766 36.8594 36.8594 36.6766 36.8594 36.4375V25.4688C36.8594 25.2297 36.6766 25.0469 36.4375 25.0469H19.5625ZM19.9844 25.8906H36.0156V36.0156H19.9844V25.8906Z" fill="white"/>
<path d="M19.9844 25.8906H36.0156V36.0156H19.9844V25.8906Z" fill="white"/>
<path d="M20.2656 22.6562C20.0266 22.6562 19.8438 22.8391 19.8438 23.0781V24.2031C19.8438 24.4422 20.0266 24.625 20.2656 24.625C20.5047 24.625 20.6875 24.4422 20.6875 24.2031V23.5H35.4531C35.6922 23.5 35.875 23.3172 35.875 23.0781C35.875 22.8391 35.6922 22.6562 35.4531 22.6562H20.2656Z" fill="white"/>
<path d="M21.1094 20.4062C20.8703 20.4062 20.6875 20.5891 20.6875 20.8281V21.9531C20.6875 22.1922 20.8703 22.375 21.1094 22.375C21.3484 22.375 21.5312 22.1922 21.5312 21.9531V21.25H34.6094C34.8484 21.25 35.0312 21.0672 35.0312 20.8281C35.0312 20.5891 34.8484 20.4062 34.6094 20.4062H21.1094Z" fill="white"/>
</g>
</svg>
