<svg width="110" height="110" viewBox="0 0 110 110" fill="none" xmlns="http://www.w3.org/2000/svg">
<g clip-path="url(#clip0)">
<path fill-rule="evenodd" clip-rule="evenodd" d="M5.31112 17.7344C2.56686 17.7344 0.342185 19.959 0.342169 22.7033L0.341797 86.6965C0.341781 89.4332 2.55473 91.6548 5.29147 91.6654L104.671 92.0509C107.422 92.0616 109.659 89.8338 109.659 87.082V22.7033C109.659 19.959 107.434 17.7344 104.69 17.7344L5.31112 17.7344ZM17.8472 31.4971V28.9133C17.8472 28.2272 18.4033 27.6711 19.0894 27.6711H20.5848C21.2708 27.6711 21.827 28.2272 21.827 28.9133V31.5014C23.5061 31.7769 24.9589 32.5471 26.063 33.7518C27.3683 35.1817 28.1028 37.194 27.9803 38.9956C27.9418 39.5345 27.4934 39.9521 26.953 39.9521H24.9572C24.3954 39.9521 23.9374 39.5017 23.9279 38.9401C23.9017 37.1276 23.1789 34.9645 19.8841 34.9645C17.0396 34.9645 15.7164 36.0806 15.7164 38.4746C15.7164 40.4751 17.5041 40.9856 20.6655 41.7114L20.6695 41.7123C24.1888 42.5211 28.5675 43.5274 28.5653 48.753C28.5653 49.7587 28.233 54.6728 21.827 55.6152V57.0375C21.827 57.7236 21.2708 58.2798 20.5848 58.2798H19.0851C18.3991 58.2798 17.8429 57.7236 17.8429 57.0375V55.5639C13.4418 54.8053 11.2379 52.159 11.1046 47.489C11.0882 46.909 11.5539 46.43 12.1341 46.43H14.1317C14.7095 46.43 15.1733 46.9071 15.157 47.4847C15.1198 48.9343 15.4994 50.069 16.2843 50.8539C17.6136 52.1832 19.7346 52.199 19.8243 52.199C23.904 52.199 24.5129 50.0575 24.5129 48.7829C24.5129 46.6577 22.7252 46.1519 19.5638 45.4436L19.5609 45.4429C16.0392 44.656 11.6597 43.6773 11.6597 38.2654C11.6597 37.6467 11.8413 32.3717 17.8472 31.4971ZM10.2796 67.3232L10.2796 70.7766C10.2796 71.4627 10.8357 72.0188 11.5218 72.0188H87.7455C88.4315 72.0188 88.9877 71.4627 88.9877 70.7766V67.3232C88.9877 66.6372 88.4315 66.081 87.7455 66.081H11.5219C10.8358 66.081 10.2796 66.6371 10.2796 67.3232ZM10.2796 81.3356V78.2549C10.2796 77.5688 10.8358 77.0127 11.5219 77.0127H62.2051C62.8911 77.0127 63.4473 77.5688 63.4473 78.2549L63.4473 81.3356C63.4473 82.0217 62.8911 82.5778 62.205 82.5778H11.5219C10.8358 82.5778 10.2796 82.0217 10.2796 81.3356Z" fill="white"/>
</g>
<defs>
<clipPath id="clip0">
<rect width="109.317" height="109.317" fill="white" transform="translate(0.341553 0.341797)"/>
</clipPath>
</defs>
</svg>
