<svg width="32" height="32" viewBox="0 0 32 32" fill="none" xmlns="http://www.w3.org/2000/svg">
<path d="M4 4C3.001 4 2.12015 4.49062 1.57715 5.24512C1.21115 5.75212 1.37284 6.47078 1.90234 6.80078L15.0742 15.0098C15.6412 15.3638 16.3588 15.3638 16.9258 15.0098L30.042 6.73047C30.5925 6.38247 30.7297 5.62614 30.3232 5.11914C29.7757 4.43814 28.9405 4 28 4H4ZM30.2734 10.1289C30.148 10.1303 30.0206 10.1649 29.9014 10.2402L16.9258 18.4229C16.3588 18.7754 15.6412 18.7739 15.0742 18.4199L2.0957 10.334C1.6187 10.037 1 10.3809 1 10.9434V25C1 26.6575 2.3425 28 4 28H28C29.6575 28 31 26.6575 31 25V10.8467C31 10.4237 30.6497 10.1248 30.2734 10.1289Z" fill="white"/>
</svg>
