<svg width="110" height="110" viewBox="0 0 110 110" fill="none" xmlns="http://www.w3.org/2000/svg">
<path d="M21.1616 6.5528C20.928 6.55788 20.695 6.57998 20.4645 6.61894H16.4137C15.7746 6.60988 15.14 6.72832 14.5469 6.96739C13.9538 7.20646 13.414 7.5614 12.9588 8.01156C12.5036 8.46173 12.1422 8.99815 11.8955 9.58965C11.6488 10.1811 11.5217 10.8159 11.5217 11.4571C11.5217 12.0983 11.6488 12.7331 11.8955 13.3246C12.1422 13.9161 12.5036 14.4525 12.9588 14.9027C13.414 15.3528 13.9538 15.7078 14.5469 15.9468C15.14 16.1859 15.7746 16.3044 16.4137 16.2953V50.1625C15.7746 50.1534 15.14 50.2719 14.5469 50.5109C13.9538 50.75 13.414 51.1049 12.9588 51.5551C12.5036 52.0053 12.1422 52.5417 11.8955 53.1332C11.6488 53.7247 11.5217 54.3595 11.5217 55.0007C11.5217 55.6418 11.6488 56.2766 11.8955 56.8681C12.1422 57.4596 12.5036 57.996 12.9588 58.4462C13.414 58.8964 13.9538 59.2513 14.5469 59.4904C15.14 59.7295 15.7746 59.8479 16.4137 59.8388V93.706C15.7746 93.697 15.14 93.8154 14.5469 94.0545C13.9538 94.2936 13.414 94.6485 12.9588 95.0986C12.5036 95.5488 12.1422 96.0852 11.8955 96.6767C11.6488 97.2682 11.5217 97.903 11.5217 98.5442C11.5217 99.1854 11.6488 99.8202 11.8955 100.412C12.1422 101.003 12.5036 101.54 12.9588 101.99C13.414 102.44 13.9538 102.795 14.5469 103.034C15.14 103.273 15.7746 103.391 16.4137 103.382H20.4268C20.9477 103.469 21.4792 103.469 22.0001 103.382H87.9528C88.4737 103.469 89.0052 103.469 89.526 103.382H93.5863C94.2254 103.391 94.86 103.273 95.4531 103.034C96.0462 102.795 96.586 102.44 97.0412 101.99C97.4964 101.54 97.8578 101.003 98.1045 100.412C98.3512 99.8202 98.4782 99.1854 98.4782 98.5442C98.4782 97.903 98.3512 97.2682 98.1045 96.6767C97.8578 96.0852 97.4964 95.5488 97.0412 95.0986C96.586 94.6485 96.0462 94.2936 95.4531 94.0545C94.86 93.8154 94.2254 93.697 93.5863 93.706V59.8388C94.2254 59.8479 94.86 59.7295 95.4531 59.4904C96.0462 59.2513 96.586 58.8964 97.0412 58.4462C97.4964 57.996 97.8578 57.4596 98.1045 56.8681C98.3512 56.2766 98.4782 55.6418 98.4782 55.0007C98.4782 54.3595 98.3512 53.7247 98.1045 53.1332C97.8578 52.5417 97.4964 52.0053 97.0412 51.5551C96.586 51.1049 96.0462 50.75 95.4531 50.5109C94.86 50.2719 94.2254 50.1534 93.5863 50.1625V16.2953C94.2254 16.3044 94.86 16.1859 95.4531 15.9468C96.0462 15.7078 96.586 15.3528 97.0412 14.9027C97.4964 14.4525 97.8578 13.9161 98.1045 13.3246C98.3512 12.7331 98.4782 12.0983 98.4782 11.4571C98.4782 10.8159 98.3512 10.1811 98.1045 9.58965C97.8578 8.99815 97.4964 8.46173 97.0412 8.01156C96.586 7.5614 96.0462 7.20646 95.4531 6.96739C94.86 6.72832 94.2254 6.60988 93.5863 6.61894H89.5072C89.2364 6.57354 88.9622 6.55141 88.6876 6.5528C88.4539 6.55788 88.221 6.57998 87.9905 6.61894H21.9812C21.7104 6.57354 21.4362 6.55141 21.1616 6.5528ZM55 33.5124C55.8435 33.5124 56.683 34.2255 57.5247 35.648L58.966 37.7363C62.1301 42.3229 69.4698 53.6556 69.4698 59.8388C69.4698 67.8412 62.9777 74.3533 55 74.3533C47.0223 74.3533 40.5301 67.8412 40.5301 59.8388C40.5301 53.6556 47.8747 42.3229 51.034 37.7363L52.4659 35.648C53.31 34.2255 54.1565 33.5124 55 33.5124Z" fill="#344CD2"/>
</svg>
