<svg width="48" height="48" viewBox="0 0 48 48" fill="none" xmlns="http://www.w3.org/2000/svg">
<path d="M45.6 0C46.9248 0 48 1.07516 48 2.3999V26.3989C48 27.7237 46.9248 28.7988 45.6 28.7988H2.4C1.0752 28.7988 0 27.7237 0 26.3989V2.3999C0 1.07516 1.0752 0 2.4 0H45.6ZM41.0109 4.7998H6.98906C6.80999 5.30452 6.52055 5.76292 6.14185 6.1416C5.76315 6.52028 5.30473 6.80971 4.8 6.98877V21.81C5.30473 21.9891 5.76315 22.2785 6.14185 22.6572C6.52055 23.0359 6.80999 23.4943 6.98906 23.999H41.0109C41.19 23.4943 41.4794 23.0359 41.8581 22.6572C42.2368 22.2785 42.6953 21.9891 43.2 21.81V6.98877C42.6953 6.80971 42.2368 6.52028 41.8581 6.1416C41.4794 5.76292 41.19 5.30452 41.0109 4.7998ZM24 7.1997C25.9096 7.1997 27.7409 7.95824 29.0912 9.30845C30.4414 10.6587 31.2 12.4899 31.2 14.3994C31.2 16.3089 30.4414 18.1402 29.0912 19.4904C27.7409 20.8406 25.9096 21.5991 24 21.5991C22.0904 21.5991 20.2591 20.8406 18.9088 19.4904C17.5586 18.1402 16.8 16.3089 16.8 14.3994C16.8 12.4899 17.5586 10.6587 18.9088 9.30845C20.2591 7.95824 22.0904 7.1997 24 7.1997ZM24.0375 31.1659C24.6732 31.1758 25.279 31.4376 25.7219 31.8937C26.1648 32.3497 26.4087 32.9629 26.4 33.5986V38.3984H31.7578C32.845 38.3984 33.3954 39.7139 32.625 40.4843L25.8937 47.2152C24.8473 48.2616 23.1526 48.2616 22.1063 47.2152L15.375 40.4843C14.6046 39.7139 15.155 38.3984 16.2422 38.3984H21.6V33.5986C21.5956 33.2775 21.6557 32.9588 21.7767 32.6614C21.8977 32.3639 22.0771 32.0938 22.3044 31.867C22.5317 31.6401 22.8022 31.4612 23.0999 31.3408C23.3976 31.2203 23.7164 31.1609 24.0375 31.1659Z" fill="white"/>
</svg>
