<?xml version="1.0" standalone="no"?>
<!DOCTYPE svg PUBLIC "-//W3C//DTD SVG 20010904//EN"
 "http://www.w3.org/TR/2001/REC-SVG-20010904/DTD/svg10.dtd">
<svg version="1.0" xmlns="http://www.w3.org/2000/svg"
 width="700.000000pt" height="700.000000pt" viewBox="0 0 700.000000 700.000000"
 preserveAspectRatio="xMidYMid meet">
<metadata>
Created by potrace 1.14, written by Peter Selinger 2001-2017
</metadata>
<g transform="translate(0.000000,700.000000) scale(0.100000,-0.100000)"
fill="#000000" stroke="none">
<path d="M2865 6974 c-66 -13 -129 -26 -140 -28 -39 -8 -211 -55 -240 -66 -17
-6 -30 -11 -30 -10 0 5 -183 -60 -275 -98 -431 -176 -805 -426 -1140 -762
-167 -167 -168 -168 -281 -310 -282 -353 -498 -773 -623 -1214 -33 -114 -77
-311 -90 -401 -4 -22 -8 -53 -11 -70 -36 -235 -42 -722 -10 -916 2 -13 6 -46
9 -74 22 -179 115 -559 174 -705 6 -14 20 -52 33 -85 117 -313 371 -743 579
-980 206 -233 350 -372 550 -528 460 -360 1102 -628 1655 -693 22 -2 49 -6 60
-9 120 -26 673 -27 837 0 13 2 45 6 72 10 264 33 609 128 871 240 576 246
1077 640 1448 1140 37 50 71 95 75 100 58 77 206 332 274 474 123 257 244 622
283 851 56 334 64 475 29 550 -38 83 -103 142 -184 168 -103 34 -459 34 -583
1 -139 -37 -230 -158 -252 -334 -23 -185 -94 -474 -145 -590 -5 -11 -23 -54
-40 -95 -130 -313 -361 -634 -636 -880 -184 -165 -453 -333 -694 -434 -153
-64 -402 -132 -565 -155 -38 -6 -90 -13 -115 -16 -25 -4 -129 -8 -232 -9 -416
-6 -788 83 -1157 275 -464 241 -838 622 -1070 1090 -38 76 -75 155 -81 176 -7
21 -16 43 -20 48 -10 14 -65 191 -91 295 -51 206 -64 329 -64 595 1 239 7 307
46 497 20 96 62 255 78 293 5 11 21 54 36 95 75 202 192 411 339 605 79 105
110 140 236 265 278 278 607 476 995 600 55 17 111 34 125 36 194 36 332 103
442 215 244 249 203 658 -83 814 -109 59 -206 66 -394 29z"/>
<path d="M6105 6541 c-82 -32 -229 -89 -325 -126 -358 -138 -456 -177 -477
-191 -46 -29 -72 -97 -59 -150 4 -14 28 -48 55 -78 54 -59 70 -111 51 -160 -6
-16 -57 -95 -114 -175 -56 -80 -123 -175 -148 -211 -173 -248 -228 -326 -235
-335 -5 -5 -38 -53 -75 -105 -36 -52 -74 -103 -84 -112 -45 -40 -129 -51 -184
-24 -28 13 -279 186 -325 223 -61 50 -418 292 -442 301 -59 20 -136 -1 -179
-50 -11 -12 -58 -77 -105 -143 -46 -66 -87 -121 -91 -123 -5 -2 -8 -8 -8 -13
0 -5 -26 -45 -57 -89 -53 -72 -120 -168 -258 -366 -150 -215 -226 -323 -276
-392 -30 -42 -76 -106 -101 -142 -24 -36 -121 -173 -214 -305 -191 -272 -204
-294 -204 -347 0 -86 23 -111 252 -273 116 -82 227 -158 246 -168 58 -31 154
-18 197 27 22 23 109 147 416 586 25 36 98 139 162 230 64 91 121 172 127 180
133 198 171 229 266 216 49 -6 56 -10 405 -258 411 -292 393 -280 452 -284
101 -6 101 -6 417 446 58 83 111 158 118 168 7 9 85 121 174 247 462 659 555
789 576 802 40 27 103 28 153 3 59 -31 101 -35 144 -15 46 23 73 61 79 116 3
24 8 143 11 264 2 121 7 332 11 469 3 136 3 263 0 282 -13 66 -93 130 -166
132 -20 0 -98 -24 -185 -57z"/>
</g>
</svg>
